<svg version="1.1" id="Layer_1" xmlns="http://www.w3.org/2000/svg" x="0" y="0" viewBox="0 0 2000 2000" style="enable-background:new 0 0 2000 2000" xml:space="preserve"><style>.st1{fill:#fff}</style><path style="fill:#0ff" d="M0 0h2000v2000H0z"/><path d="M982.49 793.48c4.09 0 7.41-3.32 7.41-7.41s-3.32-7.41-7.41-7.41-7.41 3.32-7.41 7.41 3.31 7.41 7.41 7.41zm51.21 5.72c4.09 0 7.41-3.32 7.41-7.41 0-2.62-1.37-4.91-3.42-6.23l32.34-67.28c.95.44 1.99.7 3.1.7 4.09 0 7.41-3.32 7.41-7.41s-3.32-7.41-7.41-7.41-7.41 3.32-7.41 7.41c0 2.33 1.1 4.38 2.78 5.74l-32.44 67.49c-.75-.25-1.53-.42-2.36-.42-4.09 0-7.41 3.32-7.41 7.41s3.32 7.41 7.41 7.41zm39.98 26.88c0 4.09 3.32 7.41 7.41 7.41s7.41-3.32 7.41-7.41-3.32-7.41-7.41-7.41-7.41 3.32-7.41 7.41z"/><path d="M1273.91 921.98c-4.09 0-7.41 3.32-7.41 7.41 0 .56.07 1.09.19 1.61l-37.81 5.59c-.84-3.16-3.7-5.51-7.13-5.51-3.09 0-5.73 1.89-6.85 4.58l-93.9-24.51 11.19-23.93c.64.18 1.3.31 2 .31 4.09 0 7.41-3.32 7.41-7.41s-3.32-7.41-7.41-7.41-7.41 3.32-7.41 7.41c0 .34.06.67.1 1l-67.22 11.04c-.9-3.08-3.71-5.33-7.08-5.33-4.09 0-7.41 3.32-7.41 7.41s3.32 7.41 7.41 7.41c3.13 0 5.79-1.94 6.88-4.68l59 15.4-17.5 37.4-131.27 13.18a7.4 7.4 0 0 0-7.22-5.78c-.6 0-1.17.09-1.73.22l-19.46-57.6c2.48-1.2 4.21-3.72 4.21-6.66 0-3.27-2.13-6.02-5.08-7l21.29-92.73c.25.03.5.08.76.08 1.75 0 3.34-.63 4.61-1.65l60.74 59.25c-.95 1.25-1.54 2.78-1.54 4.47 0 4.09 3.32 7.41 7.41 7.41 4.01 0 7.26-3.2 7.39-7.18l64.02-5.85a7.417 7.417 0 0 0 6.82 4.51c4.09 0 7.41-3.32 7.41-7.41s-3.32-7.41-7.41-7.41-7.41 3.32-7.41 7.41c0 .39.06.76.11 1.13l-63.69 5.82a7.402 7.402 0 0 0-7.24-5.84c-1.75 0-3.34.63-4.61 1.65l-60.74-59.25c.95-1.25 1.54-2.78 1.54-4.47 0-4.09-3.32-7.41-7.41-7.41-3.99 0-7.22 3.16-7.38 7.1l-64.16 5.17a7.393 7.393 0 0 0-4.35-5.92l23.29-84.5c.35.05.71.11 1.08.11 4.09 0 7.41-3.32 7.41-7.41s-3.32-7.41-7.41-7.41-7.41 3.32-7.41 7.41c0 3.09 1.9 5.74 4.59 6.85l-23.28 84.45c-.41-.07-.82-.13-1.25-.13-4.09 0-7.41 3.32-7.41 7.41 0 3.88 3 7.03 6.8 7.35l2.13 49.07c-3.73.39-6.64 3.5-6.64 7.33 0 4.09 3.32 7.41 7.41 7.41s7.41-3.32 7.41-7.41c0-3.74-2.78-6.8-6.37-7.31l-2.13-49.16c3.21-.52 5.7-3.1 6.12-6.34l64.29-5.18c.52 2.54 2.35 4.58 4.74 5.45l-21.29 92.76c-.19-.01-.37-.06-.57-.06-4.09 0-7.41 3.32-7.41 7.41 0 .18.04.35.05.52l-103.86 20.29c-.97-2.97-3.72-5.12-7.01-5.12-4.09 0-7.41 3.32-7.41 7.41s3.32 7.41 7.41 7.41c1.68 0 3.2-.58 4.44-1.51l80.91 83.72c-1.03 1.27-1.67 2.87-1.67 4.64 0 1.51.46 2.9 1.23 4.07l-54.99 46.7-48.82-118.03c2.25-1.27 3.78-3.66 3.78-6.42 0-4.09-3.32-7.41-7.41-7.41s-7.41 3.32-7.41 7.41 3.32 7.41 7.41 7.41c.69 0 1.34-.12 1.97-.3l49.04 118.56-116.89 99.25a7.352 7.352 0 0 0-5.35-2.31c-4.09 0-7.41 3.32-7.41 7.41s3.32 7.41 7.41 7.41 7.41-3.32 7.41-7.41c0-1.33-.38-2.56-.99-3.64l116.55-98.96 72.85 176.11c-2.25 1.27-3.78 3.66-3.78 6.42 0 4.09 3.32 7.41 7.41 7.41s7.41-3.32 7.41-7.41c0-3.13-1.95-5.8-4.7-6.88L981.58 1034c.41.07.82.13 1.24.13.64 0 1.26-.11 1.86-.26l89.6 265.26c-2.19 1.29-3.68 3.64-3.68 6.37 0 4.09 3.32 7.41 7.41 7.41s7.41-3.32 7.41-7.41-3.32-7.41-7.41-7.41c-.72 0-1.41.14-2.07.33l-89.58-265.22a7.415 7.415 0 0 0 3.61-4.59l60.25 17.22c-.04.3-.09.59-.09.89 0 4.09 3.32 7.41 7.41 7.41s7.41-3.32 7.41-7.41c0-2.95-1.74-5.47-4.23-6.67l11.6-24.8 159.26-20.07c1.05 2.82 3.74 4.83 6.92 4.83 4.09 0 7.41-3.32 7.41-7.41s-3.32-7.41-7.41-7.41c-.5 0-.98.05-1.46.15l-11.97-40.26c2.41-1.22 4.08-3.7 4.08-6.59 0-.04-.01-.08-.01-.12l38.18-5.65c1.22 2.41 3.7 4.07 6.58 4.07 4.09 0 7.41-3.32 7.41-7.41.01-4.08-3.31-7.4-7.4-7.4zm-214.02-26.77c.04-.32.1-.64.1-.98 0-.1-.03-.2-.03-.3l67.36-11.06c.62 1.56 1.77 2.83 3.21 3.65l-11.3 24.17-59.34-15.48zm60.33 17.61 94.22 24.59c-.05.32-.09.64-.1.96l-111.3 11.18 17.18-36.73zm-137.4 106.49c-.38 0-.75.06-1.12.11l-16.24-48.08a7.386 7.386 0 0 0 4.4-6.61l130.2-13.07-28.97 61.93-81.44 10.26a7.4 7.4 0 0 0-6.83-4.54zm-23.76-61.28c-2.37 1.24-4 3.69-4 6.54 0 1.57.49 3.02 1.33 4.22l-40.56 36.15a7.56 7.56 0 0 0-2.35-1.4l23.67-103.1c.31.04.63.1.95.1.51 0 1.02-.05 1.5-.15l19.46 57.64zm-27.98-62.61c.69 2.1 2.27 3.79 4.31 4.6l-23.68 103.14c-.25-.03-.5-.08-.76-.08-1.68 0-3.2.58-4.44 1.51l-80.91-83.72c1.03-1.27 1.67-2.87 1.67-4.64 0-.18-.04-.35-.05-.52l103.86-20.29zM850.5 1063l55.45-47.08a7.322 7.322 0 0 0 4.56 1.93l13.68 221.63c-.21.04-.41.1-.62.16L850.5 1063zm76 176.44c-.17-.02-.34-.04-.52-.05l-13.68-221.63c3.45-.64 6.06-3.64 6.06-7.27 0-1.57-.49-3.02-1.33-4.22l40.56-36.15c1.3 1.15 3 1.86 4.87 1.86.43 0 .85-.06 1.26-.13l16.22 48.03a7.406 7.406 0 0 0-4.54 6.83c0 3.03 1.83 5.63 4.44 6.78l-53.34 205.95zm132.5-199.98a7.375 7.375 0 0 0-8.37 4.62l-60.4-17.27c0-.03.01-.06.01-.09 0-.38-.06-.74-.11-1.11l80.07-10.09-11.2 23.94zm176.33-53.53c-2.5 1.19-4.25 3.72-4.25 6.68 0 .28.05.54.08.81l-157.95 19.91 28.94-61.88 112.39-11.28c.76 3.28 3.69 5.74 7.2 5.74.56 0 1.11-.07 1.63-.19l11.96 40.21z"/><path d="M1052.58 896.03c-.67 0-1.31-.37-1.62-1.01l-18.15-37.19-94.06 36.98c-.92.36-1.97-.09-2.34-1.02-.36-.93.09-1.97 1.02-2.34l95.61-37.58c.87-.34 1.87.05 2.28.89l18.88 38.68a1.794 1.794 0 0 1-1.62 2.59z"/><path d="M1078.01 1309.18c-.23 0-.45-.04-.67-.13l-351.92-139.92a1.82 1.82 0 0 1-1.06-2.21l71.23-230.66c.09-.31.27-.58.51-.8l165.15-150.73c.37-.34.87-.49 1.36-.46l71.23 5.72c.33.02.64.14.91.33l78.23 56.6c.17.12.31.27.43.44l21.92 31.95 141.91 49.41a1.8 1.8 0 0 1 .95 2.63l-38.16 62.96c-.23.39-.6.67-1.03.8l-180.49 52.91 21.29 259.19c.05.62-.22 1.22-.72 1.6-.31.25-.69.37-1.07.37zM728.3 1166.4l347.67 138.23-21.18-257.76c-.07-.85.47-1.64 1.29-1.88l181.22-53.12 36.64-60.46-140.36-48.88a1.83 1.83 0 0 1-.89-.68l-22.08-32.18-77.57-56.13-69.95-5.62L798.9 937.8l-70.6 228.6z"/><path d="M1081.09 827.88c-.94 0-1.73-.73-1.8-1.68l-7.71-112.76-88.2 75.57c-.75.65-1.89.56-2.54-.2-.65-.76-.56-1.89.2-2.54l90.92-77.9c.52-.45 1.24-.56 1.87-.29.63.26 1.05.86 1.1 1.54l7.96 116.33c.07.99-.68 1.85-1.68 1.92-.04.01-.08.01-.12.01zm-261.23 90.15h-.09c-.99-.05-1.76-.89-1.71-1.89l4.6-92c.02-.32.12-.63.3-.9l86.5-131.01c.35-.53.95-.84 1.57-.81.63.02 1.2.38 1.51.93l51.52 92.86c.48.87.17 1.97-.7 2.45-.87.48-1.97.17-2.45-.7l-50.07-90.25-84.59 128.12-4.57 91.51c-.07.94-.86 1.69-1.82 1.69zm232.72-22h-.02l-114.49-1.1a1.8 1.8 0 0 1-1.78-1.82c.01-.99.81-1.78 1.8-1.78h.02l114.49 1.1a1.8 1.8 0 0 1 1.78 1.82c-.01.99-.81 1.78-1.8 1.78z"/><path d="M1490.87 946.83c-2.08-3.61-4.59-6.86-7.46-9.67 1.17-2.45 2.15-4.8 2.91-7 1-2.8 1.68-5.44 2.03-7.83.77-4.72.92-9.38.42-13.85-.67-7.1-3.31-13.9-7.86-20.18-3.02-4.16-6.2-7.04-8.41-8.77 1.65-5 2.61-10 2.95-15.29.28-5.44-.09-9.99-1.13-13.93-1.85-7.08-5.39-13.66-10.21-19.02-2.7-2.94-5.84-5.43-9.59-7.64 1.09-5.43 1.52-10.68 1.28-15.63-.39-4.74-1.4-9.3-2.99-13.55-1.44-3.84-3.3-7.35-5.54-10.45a45.434 45.434 0 0 0-6.92-7.21c-3.14-2.64-6.69-4.87-10.28-6.48.24-2.57.29-5.06.15-7.61-.14-2.73-.46-5.4-.94-7.94-.95-4.96-2.43-9.41-4.42-13.27-3.5-6.42-8.51-11.94-14.48-15.97-4.34-2.92-8.38-4.33-11.13-5.14-.24-5.48-1.08-10.67-2.49-15.45a50.069 50.069 0 0 0-6.12-12.45c-2.3-3.36-4.94-6.32-7.86-8.82a45.645 45.645 0 0 0-8.43-5.35c-4.61-2.26-8.76-3.33-11.52-3.83-.37-2.55-.9-4.91-1.66-7.41-.78-2.61-1.72-5.12-2.79-7.49-2.12-4.64-4.62-8.61-7.44-11.82-4.92-5.4-11.09-9.58-17.85-12.08-3.77-1.37-7.82-2.17-12.06-2.36-1.56-5.37-3.59-10.21-6.04-14.4-2.54-4.02-5.54-7.6-8.9-10.63-3.11-2.79-6.38-5.04-9.73-6.7a45.844 45.844 0 0 0-9.46-3.2 44.03 44.03 0 0 0-12.1-1c-1.95-4.7-4.46-8.98-7.87-13.43-3.22-4.06-6.59-7.32-10.04-9.71-6.07-4.08-13.06-6.68-20.22-7.51-3.99-.43-8.11-.24-12.26.57-2.75-4.75-5.89-8.97-9.34-12.56-3.42-3.29-7.19-6.05-11.19-8.2-3.58-1.92-7.3-3.33-11.06-4.2-3.27-.64-6.6-.91-9.96-.85-4.16.1-8.19.75-12 1.93-1.58-2.18-3.19-4.09-4.92-5.83a59.274 59.274 0 0 0-5.95-5.33c-3.82-2.98-7.89-5.35-12.09-7.06-6.88-2.49-14.29-3.31-21.44-2.39-1.39.18-2.81.43-4.25.76-1.21.31-2.4.67-3.63 1.11-1.42.5-2.72 1.1-3.86 1.64-3.81-3.95-7.88-7.28-12.08-9.9-4.89-3.05-9.69-4.51-12.89-5.35-9.55-2.39-17.03-1.24-21.62.13-4.02 1.12-7.78 2.74-11.18 4.82-2.19-1.82-4.26-3.36-6.15-4.59a59.498 59.498 0 0 0-7.05-3.7c-4.37-1.92-8.85-3.22-13.31-3.85-3.7-.59-7.58-.55-11.85.13-3.28.53-6.51 1.41-9.61 2.64-5.11 2.06-8.54 4.37-10.58 6.01-4.62-2.87-9.33-5.07-13.99-6.57-5.23-1.65-9.73-2.38-13.76-2.27-7.31.05-14.54 1.84-20.94 5.2-3.48 1.95-6.83 4.52-9.72 7.44-5.05-2.42-10.04-4.13-14.83-5.08-4.68-.78-9.34-.92-13.87-.43-3.95.44-7.81 1.37-11.5 2.78a46.083 46.083 0 0 0-8.69 4.95c-4.16 3.01-7.05 6.18-8.79 8.39-1.02-.37-2.08-.74-3.14-1.06-1.61-.45-3.17-.78-4.22-.98-2.65-.53-5.32-.87-7.92-1.02-4.75-.29-9.44.05-13.95 1.02-7.12 1.81-13.52 5.22-19.03 10.15-3.92 3.42-6.29 7.02-7.76 9.51-5.39-1.09-10.61-1.53-15.51-1.31-5.62.22-10.25 1.65-13.66 2.87-3.72 1.39-7.22 3.22-10.39 5.45-3.02 2.06-5.32 4.53-7.37 6.9-2.69 3.2-4.87 6.65-6.5 10.29-5.27-.53-10.37-.31-15.58.66-4.7.88-9.15 2.34-13.25 4.36-6.37 3.31-11.77 8.16-16.05 14.4-2.26 3.24-4.02 6.96-5.24 11.07-5.48.23-10.64 1.05-15.34 2.43-2.31.65-4.56 1.53-6.86 2.69-2 1-3.93 2.13-5.73 3.35a46 46 0 0 0-8.77 7.77c-2.42 2.69-4.07 5.64-5.51 8.44-2.27 4.6-3.35 8.76-3.86 11.53-5.25.75-10.14 2.17-14.96 4.34-4.36 1.97-8.35 4.45-11.85 7.39-12.7 11.38-14.43 25.34-14.65 29.82-5.33 1.54-10.14 3.55-14.3 5.96-4.9 2.81-8.33 6.21-10.78 8.85-2.66 2.95-4.91 6.2-6.69 9.64-1.74 3.3-2.66 6.65-3.33 9.5-.91 4.07-1.25 8.14-1.02 12.11-4.85 1.94-9.27 4.49-13.5 7.78-3.77 2.95-7.06 6.31-9.77 9.99-9.62 14.09-8 28.04-7.15 32.45-4.74 2.73-8.93 5.84-12.47 9.23-4.07 3.85-6.61 7.99-8.37 11.18-1.88 3.51-3.29 7.2-4.19 10.95-.9 3.46-1.01 6.87-.98 10.04.1 4.17.74 8.22 1.92 12.03-1.91 1.38-4.07 3.03-5.93 4.86a59.204 59.204 0 0 0-5.33 5.93c-2.95 3.77-5.32 7.82-7.06 12.03-2.6 6.61-3.45 13.83-2.53 21.48.36 2.8.95 5.44 1.74 7.86.49 1.39 1.07 2.68 1.63 3.87-8.16 7.91-13.47 16.51-15.37 24.89-.96 3.85-1.43 7.78-1.39 11.68.02 1.71.14 3.47.36 5.21.23 1.71.63 3.27 1.02 4.73 1.1 3.96 2.75 7.83 4.8 11.2-6.78 7.97-10.8 16.62-12.27 26.45-1.12 6.93-.26 13.95 2.64 21.47.68 1.73 1.49 3.44 2.39 5.1l.12.22h116.19l-.08-.49c-.42-2.39-1.1-4.75-2.03-7-.82-2-1.81-3.96-3.04-5.99-.82-1.39-1.93-3.21-3.32-5.21 2.31-2.04 4.42-4.4 6.11-6.86 1.4-2.01 2.61-4.31 3.69-7.03a27.63 27.63 0 0 0 2.11-9.06c.22-3.36-.23-7.07-1.33-10.99-.9-3.68-2.53-7.69-4.85-11.92 1.69-1.2 4.15-3.17 6.75-6.03 4.23-4.57 6.82-9.73 7.71-15.35.46-3 .85-6.65.19-10.98-.47-3.53-1.64-7.6-3.56-12.42a38.15 38.15 0 0 0 7.63-5.16c4.34-3.8 7.53-8.58 9.45-14.21 1.08-3.37 1.54-7.08 1.39-11.05-.16-4.34-.76-8.37-1.9-12.66a36.08 36.08 0 0 0 8.01-4.26c5.24-3.45 9.02-7.84 11.24-13.06 1.2-3.04 2.37-6.42 2.78-10.6.4-3.71.24-8.06-.47-12.93 3.04-.72 5.94-1.78 8.64-3.17 5-2.54 9.36-6.54 12.6-11.56 1.86-3.02 3.21-6.52 4.01-10.41.56-2.8 1.3-7.14 1.2-12.76 3.07-.39 6.03-1.14 8.79-2.23 6.01-2.15 10.6-5.43 14.03-10.03 1.9-2.67 3.84-5.68 5.23-9.64 1.29-3.55 2.15-7.69 2.62-12.67h.17c2.11 0 5.39-.18 8.98-1.05 5.5-1.32 10.68-4.16 14.99-8.25 2.52-2.5 4.66-5.58 6.36-9.16 1.91-4 3.26-7.86 4.21-12.11 3.1.35 6.15.31 9.04-.09 6.22-.62 11.61-2.78 16.02-6.41 2.35-2.04 5.04-4.51 7.37-8.11 2.06-3.09 3.88-6.92 5.55-11.68 3.02.76 6.09 1.16 9.14 1.16h.16c5.61 0 11.25-1.53 16.34-4.43 3.04-1.82 5.85-4.3 8.35-7.38 2.75-3.38 5.03-6.89 6.95-10.75 2.85 1.06 5.9 1.78 8.81 2.08 6.41.89 11.88.1 17.05-2.38 2.72-1.38 5.92-3.19 9.08-6.12 2.82-2.6 5.57-5.96 8.18-10.02a38.44 38.44 0 0 0 8.57 3.34c2.6.66 5.17.99 7.75 1 .11 0 .18 0 .25-.01 1.44 0 2.81-.16 4.33-.35 1.6-.19 3.19-.52 4.72-.98 6.33-1.85 12.62-6.4 19.21-13.92 2.57 1.76 5.31 3.18 8.16 4.22 2.02.7 4.71 1.55 7.68 1.99 3.13.44 6.24.37 9.36-.25 7.6-1.73 14.19-5.4 20.71-11.54.66.57 1.3 1.08 1.98 1.59 1.54 1.15 3.39 2.48 5.52 3.61 4.6 2.5 9.42 3.77 14.32 3.77.79 0 1.6-.03 2.38-.1 3.55-.13 7.2-.96 10.85-2.46 1.97-.81 3.98-1.83 5.98-3.03 1.04-.63 2.09-1.3 3.1-2 .69-.45 1.39-.94 2.1-1.44 2.06 2.34 4.38 4.4 6.9 6.13 2.3 1.57 4.7 2.8 7.12 3.66 2.49.9 5.51 1.85 9 2.02 3.53.23 7.25-.25 11.05-1.38 4.2-1.2 7.97-2.76 11.84-4.91 1.78 2.52 3.83 4.78 6.09 6.7 4.76 4.3 9.79 6.81 15.39 7.69 1.49.19 3.52.42 5.91.42 1.7 0 3.4-.12 5.06-.35 3.79-.53 7.97-1.76 12.42-3.62 1.49 2.83 3.23 5.38 5.17 7.58 1.83 2.1 3.85 3.89 6 5.34 1.21.81 2.53 1.56 3.8 2.15 1.41.75 2.91 1.38 4.45 1.88 2.86.95 6.08 1.42 9.58 1.42 4.15 0 8.78-.66 14.13-2.03 1.12 2.9 2.58 5.62 4.34 8.1 1.39 1.87 3.06 4.03 5.2 6 2.33 2.13 4.96 3.83 7.81 5.05 1.6.68 3.27 1.23 4.96 1.62 1.91.53 3.78.88 5.73 1.09 3.68.39 7.96.26 12.95-.51.55 2.17 1.48 5.3 3.2 8.6 1.28 2.47 2.81 4.7 4.55 6.64 1.02 1.12 2.11 2.15 3.24 3.05 1.09.9 2.38 1.94 3.82 2.81 5.45 3.45 12.81 5.13 22.53 5.13h.68c.39 3.07 1.16 6.07 2.29 8.9.95 2.26 2.05 4.68 3.64 7.06 1.75 2.62 3.9 4.9 6.39 6.78 1.36 1.02 2.9 1.97 4.43 2.75 1.67.94 3.46 1.76 5.32 2.42 3.61 1.3 7.88 2.18 12.71 2.6.02 2.24.17 5.49 1.07 9.11.65 2.7 1.61 5.23 2.85 7.53.71 1.32 1.52 2.57 2.4 3.71 1.07 1.48 2.04 2.66 3.07 3.68 4.6 4.75 11.58 8.17 21.33 10.47-.35 3.08-.31 6.16.11 9.17.6 4.21 1.93 10.43 6.45 15.85 1.02 1.25 2.25 2.5 3.65 3.72 1.36 1.28 2.9 2.5 4.6 3.62 3.19 2.11 7.13 3.97 11.72 5.53-.52 2.16-1.14 5.34-1.13 9.11 0 2.79.33 5.47.98 7.98.37 1.43.87 2.87 1.45 4.16.64 1.62 1.33 3.04 2.1 4.31 3.32 5.68 9.28 10.66 18.21 15.22a36.59 36.59 0 0 0-2.09 8.95c-.21 2.44-.35 5.09-.05 7.93a27.66 27.66 0 0 0 2.52 8.95c.75 1.57 1.65 3.09 2.67 4.51 1.23 1.82 2.37 3.27 3.58 4.57 2.57 2.79 5.94 5.54 10.04 8.17-1.47 2.9-2.55 5.7-3.27 8.55-.68 2.71-1.01 5.39-.99 7.97 0 2.61.46 5.49 1.45 9.08 1.02 3.39 2.73 6.72 5.1 9.87 1.27 1.69 2.75 3.38 4.38 4.98 1.27 1.36 2.79 2.8 4.51 4.28a37.04 37.04 0 0 0-4.22 8.2c-1.46 4.36-2.97 10.22-1.65 16.95.54 2.99 1.76 6.18 3.98 10.33 1.83 3.41 4.41 6.9 7.69 10.38-.41.48-.96 1.16-1.62 2.03a57.718 57.718 0 0 0-3.48 5.51c-1.98 3.68-3.2 7.51-3.6 11.36l-.05.46h114.08l.12-.21c2.29-4.01 4.11-8.06 5.39-12.06.86-2.74 1.41-5.01 1.73-7.16.29-2.32.43-4.54.41-6.61-.03-9.75-2.87-16.79-5.23-20.99zm-105.01 30.33.05.05c.51.49 1.01.95 1.61 1.5 1.02.92 2.08 1.86 3.2 2.83l.22.18c.6.53 1.22 1.07 1.83 1.57 1.06.92 2.29 1.92 3.75 3.04.65.51 1.32 1.02 1.9 1.44.16.14.33.26.51.39.96.72 2.01 1.48 3.24 2.34h-23.34c.54-2.27 1.42-4.52 2.59-6.71 1.04-1.86 2.15-3.62 3.2-5.09.42-.52.83-1.05 1.24-1.54zm9.36 3.21c-.61-.5-1.18-1-1.65-1.41-.14-.14-.32-.29-.37-.32-1.1-.94-2.13-1.86-3.16-2.79-.51-.47-1-.93-1.52-1.42-.36-.33-.69-.67-1.02-1.01l-.37-.38-.27-.26c-3.46-3.56-6.15-7.1-7.99-10.53-1.99-3.74-3.13-6.68-3.59-9.24-1.16-5.89.2-11.11 1.51-14.99 1.07-2.97 2.49-5.41 3.57-7.04.41.32.83.63 1.23.93l.58.43c.88.65 1.75 1.26 2.7 1.9l.29.19c.35.24.71.48 1.08.72l1.1.72c.63.4 1.27.8 1.9 1.18.44.27.89.55 1.34.82l.22.13c.25.15.49.3.69.41.23.15.48.29.71.42l.2.12c.4.23.81.46 1.22.7l.54.31c.13.08.26.16.39.22.15.09.3.17.45.26l2.83 1.59c.32.17.64.35.96.53.18.1.35.19.51.27l1.32.7c.55.3 1.09.59 1.65.88.98.52 2 1.04 3.05 1.57 1.56.78 3.64 1.81 5.83 2.83 1.07.52 2.16 1.03 3.25 1.51.77.37 1.55.72 2.35 1.07l1.96.88.21.21.08.08c.38.4.81.81 1.29 1.25.17.16.36.32.55.49l.08.07c.45.39.93.8 1.45 1.22.26.21.5.42.78.63.6.48 1.25.97 1.94 1.48l.57.44c3.33 2.55 8.14 5.84 14.7 10.05l.38.24c.8.51 1.65 1.05 2.5 1.6l4.45 2.8-.39.51c-.34.4-.7.85-.98 1.23-.19.21-.38.44-.57.67l-.62.75c-.89 1.01-1.91 2.16-3.05 3.4l-2.08 2.2c-.86.91-1.8 1.85-2.86 2.92l-.19.19c-1.82 1.8-3.9 3.76-6.17 5.82h-21.8c-3.21-2.15-5.69-3.88-7.81-5.46-.08-.06-.17-.12-.34-.26-.66-.49-1.29-.97-1.92-1.46a65.947 65.947 0 0 1-3.69-2.97zm-187.17-315.06-.21-.37c-2.87.74-5.69 1.34-8.65 1.85l-.71.13c-4.86.84-9.28 1.06-13.14.65-1.71-.18-3.41-.5-5.2-.99-1.52-.35-3-.83-4.39-1.42-2.46-1.05-4.72-2.52-6.74-4.36-1.9-1.74-3.42-3.71-4.69-5.42-1.83-2.57-3.03-5.11-3.75-6.9.08-.03.17-.06.25-.09l.36-.13c.51-.16 1.04-.34 1.57-.53.75-.26 1.53-.56 2.33-.86.58-.22 1.16-.44 1.77-.69.8-.32 1.66-.69 2.52-1.06l.5-.21c.49-.21.98-.41 1.5-.64 1.22-.54 2.53-1.14 3.86-1.76l.4-.18c.18-.08.36-.16.64-.29l-.19-.38.34.31c.73-.35 1.5-.73 2.26-1.11l1.5-.74c.43-.21.85-.42 1.29-.64 1.21-.61 2.47-1.29 3.73-1.97l.89-.47c.28-.15.57-.3.87-.46 1.64-.9 3.34-1.86 5.06-2.85l.79-.44c1.99-1.15 4.04-2.37 6.27-3.73l.84-.51.29-.05c.56-.09 1.17-.21 1.83-.36.24-.05.5-.11.74-.17.61-.15 1.27-.32 1.96-.51.27-.07.52-.14.8-.22.97-.28 2-.58 3.11-.94.68-.22 1.41-.47 2.18-.73l1.12-.4c.42-.15.85-.3 1.3-.47l1.63-.62c.35-.13.71-.26 1.09-.41l5.16-2.05c.39-.16.78-.32 1.19-.49.55-.23 1.15-.47 1.73-.72.66-.27 1.32-.54 2.01-.84l5.79-2.46c.5-.21.97-.42 1.47-.63l.96 3.53c.13.5.26 1.04.41 1.62l.17.67c.21.86.42 1.76.64 2.74.81 3.61 1.55 7.54 2.2 11.69l.07.38c.03.15.05.29.08.45l.42-.06-.39.21c.75 5.02 1.23 9.93 1.47 15v.02c-1.89.84-3.83 1.67-5.9 2.53-1.3.54-2.52 1.04-3.74 1.53l-1.75.72c-.55.22-1.09.43-1.62.64l-1.89.74c-.78.31-1.56.62-2.31.9-.49.19-.95.35-1.41.51l-1.68.6c-.77.28-1.53.56-2.26.8-2.96 1.02-5.93 1.92-8.84 2.67l.1.44zm-325.33-33.88c-2.42 3.74-4.93 6.81-7.47 9.15-2.81 2.6-5.72 4.25-8.19 5.51-4.44 2.13-9.31 2.79-14.9 2.01-3.14-.33-5.83-1.11-7.65-1.75l.18-.45.24-.6c.26-.62.52-1.23.77-1.86.32-.79.63-1.6.93-2.43.27-.72.54-1.44.81-2.19.25-.71.49-1.43.73-2.15l.31-.94c.19-.58.38-1.16.57-1.75.25-.78.49-1.58.72-2.38l.3-1.01c.17-.57.34-1.14.51-1.73.3-1.04.58-2.13.87-3.24l.19-.7c.13-.49.27-.98.39-1.49.32-1.27.63-2.61.95-3.94l.2-.83c.08-.32.16-.65.23-.99.36-1.59.7-3.23 1.04-4.88l.11-.54c.05-.24.1-.48.15-.73.43-2.12.84-4.3 1.25-6.55l.17-.95.08-.13c.07-.12.15-.24.23-.36l.13-.21c.28-.44.56-.9.84-1.4.14-.24.27-.49.41-.73.28-.52.57-1.09.86-1.67l.37-.74c.41-.85.82-1.75 1.24-2.73.29-.65.59-1.36.9-2.11l.47-1.18c.16-.39.32-.79.49-1.22l.38-1.01c.21-.55.42-1.09.64-1.69l.48-1.32c.21-.56.41-1.11.62-1.7l5.07-14.7c.26.13.55.26.87.42l.46.23c.39.19.82.41 1.29.64l.57.29c.53.28 1.11.57 1.8.94.12.06.23.12.36.19.8.42 1.65.88 2.56 1.38.72.4 1.47.83 2.25 1.27.71.41 1.47.85 2.25 1.31l.19.11c6.49 3.85 12.48 8 18.3 12.69l.2.16-.03.08c-.65 2.03-1.31 4.01-1.96 5.91l-.14.37c-.65 1.88-1.3 3.7-1.94 5.43-.39 1.11-.78 2.16-1.16 3.17l-.08.22c-.34.93-.68 1.82-1.01 2.67l-.13.32c-.31.8-.61 1.57-.91 2.31l-.2.48c-.26.64-.52 1.27-.78 1.88-.16.37-.31.73-.47 1.08l-.65 1.48c-.31.72-.63 1.45-.95 2.13-.2.42-.39.81-.59 1.21l-.64 1.31c-.29.6-.58 1.2-.87 1.77-.18.35-.37.69-.55 1.02l-.63 1.15c-.31.58-.62 1.16-.94 1.71-.53.91-1.07 1.77-1.61 2.62l-.22.35c-.1.16-.19.32-.29.47l-.97 1.54zm-153.01 83.22-.01-.3c-.02-.56-.04-1.11-.07-1.69-.05-1.02-.12-2.09-.2-3.17l-.03-.46c-.04-.52-.07-1.04-.12-1.59-.1-1.16-.22-2.37-.34-3.59l-.08-.76c-.04-.44-.09-.89-.14-1.34-.15-1.32-.32-2.7-.5-4.08l-.09-.7c-.06-.46-.11-.93-.18-1.41-.21-1.57-.46-3.22-.71-4.88l-.1-.72c-.05-.36-.1-.72-.16-1.09-.36-2.32-.75-4.73-1.18-7.23l-.17-.97c.02-.09.04-.19.06-.3l.04-.2c.11-.54.22-1.12.31-1.76.03-.25.07-.51.1-.77.08-.63.15-1.31.21-2.03l.01-.12.06-.69c.07-1.01.14-2.07.18-3.23.02-1.06.05-2.29.06-3.63l.03-3.72-.1-9.15c-.01-.58-.02-1.16-.04-1.76l-.05-1.9c-.02-.87-.05-1.73-.08-2.65l-.13-3.61 1.65.12c.35.03.71.06 1.1.1l.78.07c.63.06 1.29.13 1.99.21l.26.03c.91.11 1.88.23 2.91.37.3.05.59.1.89.16l.72.13c8.33 1.37 16.74 3.34 24.98 5.86.15.05.31.09.46.14.06.02.11.03.16.05.26 4.31.42 8.46.49 12.35.03 2.01.04 3.94.02 5.75 0 .32-.01.64-.02.96l-.03 1.23c-.02 1.11-.04 2.21-.08 3.28-.02.62-.06 1.22-.09 1.82l-.09 1.67c-.03.57-.06 1.14-.1 1.7-.05.76-.12 1.49-.19 2.23l-.13 1.46c-.04.42-.07.83-.12 1.24-.07.68-.16 1.34-.24 1.99l-.17 1.35c-.06.46-.11.93-.18 1.37-.06.41-.13.81-.2 1.21l-.21 1.28c-.12.72-.23 1.43-.36 2.11-.89 4.4-2.23 8.4-4.23 12.59-1.51 3.19-3.38 5.9-5.57 8.06-3.85 3.66-8.3 6.11-13.23 7.28-3.08.75-5.94.93-7.92.95 0-.05 0-.09.01-.13.01-.17.01-.33.02-.5.04-.6.07-1.23.09-1.86.03-.78.04-1.59.05-2.41.01-.63.01-1.27 0-1.92.06-.92.03-1.86 0-2.8zm-3.84-1.03.02.68c.06 1.57.09 2.8.09 3.89 0 .26 0 .5-.01.74l-.01.7c-.01.92-.02 1.84-.06 2.7-.02.52-.06 1.02-.1 1.51l-.08 1.04c-.03.45-.06.9-.11 1.34l-.12 1.23c-.44 4.71-1.26 8.74-2.44 11.99-1.24 3.52-3 6.26-4.72 8.68-2.96 3.94-6.98 6.79-12.3 8.7-2.94 1.16-5.69 1.71-7.6 1.98a8.13 8.13 0 0 0-.05-.49l-.06-.63c-.05-.66-.11-1.32-.17-1.99-.09-.86-.19-1.74-.3-2.62-.09-.75-.18-1.5-.29-2.26-.11-.77-.23-1.56-.36-2.35l-.13-.78c-.1-.63-.2-1.27-.31-1.92-.17-.96-.36-1.95-.55-2.93l-.11-.56c-.11-.58-.22-1.16-.35-1.75-.23-1.12-.5-2.27-.76-3.42l-.13-.6a161.451 161.451 0 0 0-1.36-5.54l-.2-.78c-.08-.3-.15-.61-.23-.92-.44-1.66-.92-3.36-1.41-5.07l-.27-.99c-.61-2.09-1.25-4.22-1.93-6.42l-.29-.91.01-.17c.02-.17.03-.37.05-.56l.01-.16c.04-.51.08-1.04.1-1.59.01-.29.02-.58.02-.88.01-.58 0-1.19-.01-1.83l-.02-.86c-.03-.94-.09-1.92-.17-2.96-.23-3.12-.64-6.84-1.27-11.37-.34-2.53-.79-5.41-1.27-8.46-.29-1.83-.6-3.8-.9-5.83l-.09-.61v-.01l.92-.03 2.72-.06c.54 0 1.12-.01 1.73-.01h.65c.88 0 1.81.02 2.82.04.5.01 1.02.05 1.54.08.4.03.81.06 1.21.07 2.97.11 6.43.25 9.88.57.15.01.32.03.49.05l.38.04c4.22.45 9.03 1.18 14.31 2.19 1.66 9.81 2.73 18 3.28 25.02l.42-.03-.41.19c.14 1.74.24 3.39.3 4.92zm-70.59 5.8zM527.85 982.57zm8.9-102.78c.16-.12.32-.23.47-.35.19-.14.38-.29.59-.44.31-.21.65-.43.98-.64.23-.14.45-.28.67-.42 2.59-1.69 5.13-3.21 7.78-4.63 3.46-1.83 7.14-3.54 10.94-5.06 2.04-.82 4.1-1.6 6.12-2.29 1.53-.5 3.3-1.04 5.56-1.69l9.31 12.72c2.57 3.59 4.69 6.72 6.29 9.29.63 1.02 1.18 1.95 1.74 2.94.13.24.25.45.37.67l.07.12c.3.57.58 1.09.8 1.55l.09.19c.08.16.15.32.22.46.21.46.38.88.52 1.24-.12.06-.24.12-.36.19-.21.11-.41.21-.63.31a192.16 192.16 0 0 0-10.84 5.4c-.26.14-.52.29-.78.44l-.6.34c-4.05 2.23-7.61 4.34-10.87 6.43l-.17.1c-2.95 1.86-5.02 3.43-6.53 4.57l-.64.49-.81.63-.26.2c-.25.2-.46.37-.6.49-.69.29-1.37.6-2.04.91l-2.11.95c-.68.3-1.36.6-2.01.92-.47.22-.93.46-1.38.7-.32.17-.64.33-.97.49-5.44 2.73-10.38 5.62-14.69 8.56-.22.15-.42.31-.63.47-.16.12-.32.24-.49.36-.98.72-1.97 1.44-2.92 2.18-.31.25-.61.5-.91.75l-.56.47c-.8.66-1.61 1.32-2.39 2.01-.35.31-.7.63-1.04.95l-.44.41c-.73.68-1.47 1.37-2.18 2.07-.39.39-.78.8-1.17 1.2l-.19.2c-.17.18-.34.35-.52.53-.13.13-.25.25-.38.39a41.746 41.746 0 0 1-3.77-9.2c-.36-1.33-.72-2.77-.92-4.23-.2-1.55-.31-3.15-.33-4.75-.04-3.58.39-7.19 1.29-10.75 1.82-8.02 7.07-16.27 15.19-23.89 1.66-1.55 3.65-3.17 6.13-4.95zm146.54-241.08c.89-.06 1.8-.08 2.71-.1l.59-.02c.24 0 .47-.01.71-.02.33-.01.65-.03.99-.03.36 0 .69.01 1.03.02.24.01.48.02.71.02 3.09.05 5.9.21 8.61.5 1.84.21 3.78.49 5.76.84.22.04.45.09.67.13.2.05.4.09.6.12 1.39.26 3.05.58 4.77.98.41.09.83.21 1.24.31l1.02.26c1.33.33 2.67.66 4.04 1.05.54.16 1.09.33 1.64.5l.92.28c1.06.32 2.11.63 3.19.98l.09 2.46c.02.6.05 1.2.06 1.76l.08 2.53.06 1.99.03 1.67c.02.82.04 1.66.05 2.43l.01 1.07.03 2.53v.82c0 .8.01 1.6.01 2.33v.85c-.01 2.57-.05 4.74-.09 6.49-.03.98-.08 1.85-.14 2.67l-.04.6c-.06.76-.12 1.46-.19 2.07l.42.05-.43.08c-.07.57-.14 1.07-.22 1.53l-.06.36c-.05.28-.1.55-.16.81l-1.17-.21-1.54-.27c-1.09-.19-2.14-.36-3.17-.53l-1.06-.17c-1.11-.17-2.17-.32-3.21-.46l-.69-.09c-1.06-.13-2.07-.25-3.04-.35l-.95-.1c-3.33-.3-6.7-.43-9.68-.54-.41-.02-.83-.05-1.24-.08-.52-.04-1.05-.08-1.57-.09l-.9-.01c-.8-.01-1.57-.02-2.28-.02-.15.03-.38-.01-.55-.01h-.53c-.6 0-1.16.01-1.7.02l-.69.01c-.68.01-1.27.03-1.8.05l-1.92.08c-.29.01-.53.03-.69.04-1-.21-2.01-.39-3.02-.57l-.96-.17c-.33-.06-.65-.12-.98-.19-.55-.11-1.1-.22-1.66-.3-.95-.15-1.93-.26-2.91-.38l-1.16-.14c-.4-.05-.79-.1-1.18-.16-.58-.08-1.17-.16-1.78-.22-.34-.03-.67-.05-1-.07-.25-.02-.5-.03-.75-.05-3.38-.3-6.62-.45-9.62-.46-.18 0-.36-.01-.53-.01-.19-.01-.38-.01-.56-.01-1.66 0-3.4.06-5.29.16l-.3.01c-.76.04-1.5.11-2.24.19l-.75.07c-.31.03-.62.05-.93.07-.52.04-1.04.08-1.64.15l-.19.03a57.084 57.084 0 0 0-5.63.96l-.94.2-.39.09c.45-5.01 2.68-16.39 13.27-25.89 3.21-2.68 6.88-4.96 10.91-6.79 4.93-2.22 9.89-3.61 15.19-4.23 1.44-.22 3.04-.37 4.71-.48zm-41.4 40.65c.9-.18 1.89-.32 2.86-.46l.45-.07c.21-.03.41-.07.61-.1.31-.06.63-.11.97-.15.5-.06 1.01-.1 1.53-.14l1.6-.14c.72-.07 1.44-.14 2.19-.19h.39c1.8-.09 3.45-.15 5.07-.16 1.05-.01 2.12.03 3.2.07l.81.02c.29.01.58.02.86.02.4.01.8.02 1.21.04 1.95.1 3.96.25 5.97.46 2.18.22 4.35.49 6.62.85.41.07.82.14 1.22.22.28.05.55.1.82.15 1.17.21 2.34.42 3.5.65.11.76.23 1.49.34 2.22l.16 1.08c.21 1.35.42 2.66.61 3.92.47 3.01.93 5.85 1.26 8.37.61 4.39 1.03 8.14 1.25 11.15.08.99.13 1.91.16 2.79.01.16.01.31.01.46v.28c.01.6.02 1.18.01 1.73 0 .22-.01.42-.01.63l-.01.15c-.02.49-.04.95-.08 1.4l-.06.69v.02c-.71-.04-1.42-.06-2.13-.08l-1.91-.07c-.55-.03-1.11-.05-1.66-.07-1.75-.05-3.49-.06-5.23-.06l-.93-.01c-.39 0-.78-.02-1.17 0-1.91.02-3.79.08-5.55.15l-.69.02c-.35.01-.7.02-1.05.04-1.88.09-3.89.22-6.34.42l-.34.02c-.16.01-.32.02-.52.04l-.15.01c-1.65.18-3.11.36-4.4.54l-1.82.26c-.24.04-.46.07-.7.11l-2.73.46c-.44.09-.8.15-1.02.2-.82-.07-1.62-.11-2.42-.15l-2.31-.14c-.8-.05-1.59-.11-2.36-.13-.65-.03-1.27-.02-1.92-.03-6.45-.17-12.3.1-17.37.76-2.81.38-5.68.91-8.79 1.62l-.44.09c-.2.05-.4.09-.59.13-2.58.63-5.19 1.38-7.74 2.26-.08.03-.17.05-.26.08-.05-2.38.1-5.87.99-9.86.61-2.6 1.45-5.66 2.99-8.59 1.64-3.17 3.71-6.14 6.13-8.83 2.26-2.44 5.42-5.57 9.86-8.12 4.38-2.53 9.32-4.55 14.67-6 1.39-.36 2.68-.67 3.94-.93l.44-.1zm-31.86 44.24c.35-.1.7-.2 1.06-.29.24-.06.49-.11.74-.16.22-.05.44-.09.65-.14 3.08-.71 5.96-1.24 8.8-1.62 1.9-.25 3.94-.44 6.06-.57.48-.03.97-.05 1.47-.06l.91-.03c1.38-.05 2.81-.12 4.27-.12 1.84 0 3.67.02 5.46.08l.61.01c1.6.06 3.36.17 5.67.35l1.66 5.9c.26.94.52 1.88.75 2.76l1.27 4.78.67 2.62.12.49c.22.9.44 1.76.65 2.64l.04.15c.56 2.3 1.05 4.44 1.55 6.72.2.97.36 1.83.5 2.64l.1.57c.12.75.23 1.46.31 2.07l.42-.05-.4.18c.07.58.12 1.09.15 1.55l.02.35c.02.3.03.57.03.83l-1.49.09-.34.02-.93.06c-1.28.08-2.49.18-3.67.28l-.57.05c-1.32.12-2.59.24-3.79.37l.05.42-.18-.4c-1.18.13-2.3.28-3.36.44l-.3.04.05.42-.16-.4-.25.03c-1.75.26-3.5.57-4.98.83l-.54.09-.58.09c-1.61.3-3.17.63-4.74.96l-.56.11c-.3.06-.61.12-.86.18l-.22.05c-1.64.37-3.09.71-4.37 1.03-.11.03-.21.05-.31.08-.52.13-1.02.26-1.48.38l-3.88 1.1c-.21.06-.37.11-.44.14l-.26.02c-.95.03-1.9.09-2.85.15l-1.03.07c-.33.02-.66.04-.99.05-.52.02-1.04.05-1.57.09-1.13.09-2.33.24-3.49.39l-.99.12c-.36.05-.7.08-1.05.12-.52.06-1.05.11-1.61.19-4.23.6-8.36 1.39-12.27 2.37-1.69.42-3.41.9-5.24 1.46l-.14.04c-1.41.43-2.78.91-4.06 1.37-.17.06-.34.12-.52.17-.2.07-.41.13-.65.22l-.09.03c-.07.02-.14.06-.21.09l-.11.05c-1.39.52-2.78 1.11-4.25 1.81-.26.12-.5.24-.75.36l-.34.16c-.2.1-.41.2-.61.3-.13.06-.25.12-.37.18-.76-4.96-1.31-16.53 6.73-28.32 2.48-3.36 5.51-6.45 9-9.18 4.35-3.38 8.84-5.91 13.75-7.73 2.23-.86 4.72-1.67 7.61-2.45.26-.11.49-.18.72-.24zm-34.55 50.52-.18-.38.32.31c.88-.42 1.88-.83 2.85-1.22l.37-.15c.21-.09.41-.17.61-.26.26-.12.52-.23.81-.34.24-.09.49-.17.74-.25.2-.07.4-.13.6-.2l.41-.14c1.07-.37 2.17-.76 3.29-1.1l.15-.04c.08-.02.16-.04.23-.07 1.77-.53 3.37-.97 4.89-1.35 3.8-.94 7.79-1.71 11.85-2.28 2.33-.32 4.53-.58 6.71-.76.41-.04.82-.06 1.22-.08.26-.01.53-.03.79-.05 1.18-.08 2.36-.15 3.54-.19l6.01 14.59c1.65 4.16 2.91 7.6 3.86 10.52.31.94.57 1.82.81 2.66.06.19.1.37.15.56l.06.22c.15.55.29 1.09.41 1.6.07.29.12.56.18.84.09.44.17.88.24 1.29.04.25.08.5.11.74-.69.13-1.38.28-2.07.42l-2.21.45c-.45.09-.89.18-1.34.28-1.64.35-3.27.74-4.89 1.14l-.74.18c-.51.12-1.02.24-1.52.37-1.76.45-3.47.93-5.05 1.38l-.78.22c-.4.11-.79.21-1.18.33-1.8.53-3.74 1.15-5.94 1.88l-.35.11c-.17.05-.34.1-.53.17l-.16.05c-1.55.56-2.92 1.09-4.13 1.57l-.6.24c-.35.14-.7.28-1.01.41-.26.1-.49.2-.72.3l-3.53 1.55c-.89.14-1.75.31-2.6.47l-2.1.39c-.75.13-1.51.26-2.23.42-.43.09-.85.19-1.27.29-.3.07-.59.14-.9.21-6.19 1.38-11.73 3.01-16.46 4.84-2.6 1.03-5.25 2.23-8.12 3.67l-.47.23c-.17.08-.35.17-.51.26-2.33 1.21-4.6 2.53-6.94 4.04-.08.05-.16.1-.25.15-.62-2.3-1.31-5.74-1.4-9.82-.02-2.69.03-5.84.87-9.06v-.01c.83-3.47 2.13-6.86 3.85-10.05 1.62-2.94 3.96-6.75 7.65-10.25 3.65-3.51 7.97-6.65 12.83-9.33 1.34-.75 2.57-1.39 3.77-1.97zm-20.64 50.75c.19-.1.37-.21.56-.32.28-.16.55-.32.84-.47.3-.16.61-.31.92-.46.22-.11.44-.21.65-.32 2.76-1.39 5.33-2.55 7.87-3.55l-.16-.39.29.35c1.75-.67 3.55-1.3 5.35-1.87.23-.07.47-.14.72-.21.21-.06.42-.12.62-.18 1.43-.43 2.96-.89 4.58-1.3.42-.11.86-.21 1.29-.31.29-.07.58-.13.87-.2l.13-.03c1.33-.32 2.66-.64 4.05-.94.55-.11 1.12-.21 1.69-.32l1.14-.21c1.03-.19 2.05-.39 3.1-.57l.87 1.53c.41.72.82 1.44 1.19 2.11l2.1 3.74c.34.61.64 1.16.96 1.74l.07.13c.27.48.54.98.79 1.44.58 1.05 1.11 2.05 1.61 2.99l2.88 5.56c.88 1.69 1.62 3.15 2.25 4.47.43.9.79 1.69 1.12 2.44l.23.53c.3.7.57 1.37.79 1.94l.39-.15-.36.25c.21.55.38 1.03.52 1.48l.11.33c.09.28.17.55.23.8l-.96.3-1.47.46c-1.11.36-2.19.71-3.25 1.07l-.14.05c-.23.07-.46.15-.68.23-1.12.38-2.2.76-3.25 1.14l-.54.19c-.99.37-1.94.73-2.86 1.09l-1.03.4c-1.82.75-3.61 1.55-4.97 2.15l-.69.3c-1.39.63-2.83 1.31-4.66 2.2l-.38.18c-.23.11-.46.21-.68.32l.18.38-.28-.33-.46.23c-1.09.55-2.08 1.06-2.99 1.53l-.51.27c-.92.49-1.72.92-2.43 1.32l-.49.28c-.65.36-1.19.67-1.64.93l-.29.17c-.37.22-.66.39-.84.5-1.9.53-3.69 1.1-5.34 1.62-.2.06-.4.12-.61.18-.28.08-.56.16-.82.25-2.17.75-4.3 1.55-6.35 2.38-3.95 1.6-7.76 3.36-11.33 5.26-.24.13-.46.26-.69.39-.18.11-.37.21-.56.32-1.11.62-2.4 1.33-3.58 2.04-.39.23-.75.46-1.11.7l-.56.36c-.96.6-1.9 1.2-2.79 1.8-.35.24-.68.48-1.01.71l-.53.38c-.84.6-1.66 1.2-2.44 1.81-.45.36-.88.72-1.31 1.07l-.46.37-.3.24c-.33-.78-.64-1.59-.93-2.4-.71-2.16-1.24-4.55-1.57-7.11-.84-7-.07-13.58 2.29-19.58 1.6-3.87 3.8-7.61 6.53-11.1 1.47-1.89 3.15-3.76 4.99-5.56 1.98-1.95 4.4-3.74 6.51-5.24a94.37 94.37 0 0 1 7.02-4.28zM508.05 967.6c1.43-9.54 5.43-17.89 12.23-25.55.99-1.13 2.02-2.22 2.82-3.04.1-.1.19-.2.28-.3.1-.11.2-.22.3-.32.36-.37.74-.72 1.11-1.07l1.17-1.12c.44-.43.88-.86 1.34-1.27.16-.14.33-.28.5-.42l.4-.34c.87-.76 1.89-1.64 2.94-2.47l.22-.16c1.32-1.04 2.58-1.98 3.87-2.88 1.63-1.11 3.35-2.22 5.11-3.29.2-.12.41-.24.62-.35.2-.11.39-.22.58-.34 1.54-.91 2.85-1.67 4.22-2.41.38-.21.77-.4 1.17-.6.28-.14.57-.29.85-.43l.23-.12c1.15-.6 2.29-1.19 3.48-1.76.55-.26 1.11-.52 1.68-.77l1.36-.62c.74-.34 1.47-.67 2.23-1 .85.89 1.65 1.73 2.44 2.57l1.61 1.69c.44.46.87.92 1.27 1.34 1.04 1.11 1.96 2.12 2.9 3.14l1.06 1.15c.39.42.78.84 1.13 1.23.91 1.01 1.71 1.91 2.51 2.83l.7.79c.35.39.71.79 1.01 1.15 1.26 1.46 2.4 2.82 3.41 4.07a72.867 72.867 0 0 1 2.49 3.19l.2.27c.39.53.74 1.04 1.04 1.48l.09.13c.11.16.21.32.3.46.28.44.51.83.7 1.16-.9.55-1.8 1.11-2.69 1.68l-1.78 1.12c-.45.28-.9.56-1.34.84-2.31 1.49-4.56 3.01-6.69 4.52-.2.14-.38.27-.56.4l-.39.29c-3.46 2.46-6.28 4.82-8.34 6.55l-.76.64c-1.14.97-2.13 1.85-3.02 2.65l-.16.14c-.8.72-1.49 1.37-2.1 1.93l-.49.46c-.44.42-.84.8-1.16 1.11-.48.46-.85.83-1.05 1.04-.51.3-1.01.6-1.51.9-.32.19-.63.38-.95.57l-.84.49c-.9.53-1.81 1.06-2.7 1.62l-.16.11c-2.04 1.29-3.86 2.5-5.6 3.7-1.32.95-2.59 1.95-3.89 2.97a117.7 117.7 0 0 0-5.76 4.81l-.09.09c-.9.82-1.96 1.78-2.98 2.78-.28.26-.54.53-.8.8l-.28.29c-.22.19-.4.37-.5.51-.17.16-.33.33-.49.5l-.66.68c-.08.08-.16.16-.22.23-.55.58-1.07 1.19-1.58 1.8-.19.22-.37.44-.56.66h-7.46c-.62-1.21-1.11-2.3-1.55-3.41-2.68-6.85-3.47-13.23-2.46-19.49zm17.74 21.64c1.3-1.34 2.73-2.71 4.26-4.09l.15-.14c1.62-1.45 3.36-2.91 5.33-4.47 1.25-.99 2.61-2.04 4-3.04 1.74-1.22 3.63-2.47 5.62-3.72.12-.08.25-.15.37-.22l.29-.18c1.36-.84 2.79-1.7 4.26-2.55.81.67 1.58 1.32 2.33 1.95l.52.43c.23.2.47.39.69.58 1.28 1.08 2.49 2.11 3.65 3.1 1.71 1.46 3.29 2.81 4.77 4.04 3.5 3 6.25 5.47 8.4 7.54.73.7 1.4 1.37 2.02 2.03h-47.84c.37-.4.74-.81 1.18-1.26zm28.88-19.52c-.52-.44-1.04-.88-1.59-1.33.23-.23.49-.47.78-.74l.09-.09c.34-.32.74-.69 1.15-1.07l.66-.6c.2-.19.42-.38.65-.58l1.51-1.34c.51-.45 1.04-.91 1.6-1.39l.82-.69c2.32-1.95 4.84-4.03 7.89-6.22l.38-.27c.22-.16.44-.32.68-.49 1.21-.86 2.44-1.67 3.67-2.49l.84-.56c.31-.21.63-.42.94-.64.42-.29.84-.58 1.26-.85.43-.28.86-.54 1.29-.8.3-.18.59-.36.89-.55l.38-.24c1.3-.82 2.6-1.64 3.91-2.42 3.18 2.53 6.29 5.12 9.22 7.65l.08.07c2.62 2.28 5.3 4.73 8.22 7.5l.65.61.73.7c.87.83 1.73 1.67 2.56 2.5l.47.47.19.2c.87.89 1.7 1.77 2.51 2.65l.27.29c.12.12.24.25.35.37 2.06 2.28 3.87 4.48 5.38 6.55l.36.48c1.43 1.97 2.55 3.83 3.77 5.88 1.12 1.86 2.03 3.65 2.78 5.48.35.84.66 1.74.96 2.75h-43.38l-.42-.5c-.08-.1-.17-.21-.26-.31-.39-.44-.82-.9-1.27-1.38l-.48-.52c-.63-.66-1.32-1.34-2.06-2.06-2.21-2.13-5.02-4.65-8.59-7.71-1.5-1.25-3.08-2.59-4.77-4.04l-5.07-4.27zm59.08.86c-.17-.22-.35-.44-.53-.66-.73-.88-1.5-1.76-2.3-2.66-.07-.08-.14-.15-.2-.23l-.35-.39c-.6-.67-1.25-1.34-1.89-2.02-.3-.32-.6-.64-.92-.96l-.45-.47-.99-.99-.9-.89-.7-.67-.76-.74c-.16-.16-.33-.32-.51-.49-.1-.1-.22-.2-.32-.3l-.3-.27c-2.98-2.83-5.85-5.44-8.76-7.97l-.11-.11h-.02a274.21 274.21 0 0 0-9.95-8.22l-.76-.6.01-.01c-.04-.08-.1-.17-.15-.25l-.11-.18c-.27-.47-.58-.97-.93-1.5-.15-.23-.31-.46-.47-.7-.35-.51-.73-1.03-1.13-1.58l-.53-.71c-.61-.79-1.26-1.62-1.99-2.5-1.02-1.27-2.18-2.65-3.44-4.11-.21-.25-.45-.52-.69-.79l-.57-.64c-.95-1.09-1.89-2.16-2.98-3.36-.33-.37-.7-.76-1.07-1.16l-1.09-1.18c-.94-1.02-1.87-2.04-2.91-3.15-.56-.6-1.17-1.24-1.77-1.88l-1.58-1.67c-.53-.56-1.05-1.12-1.62-1.71.2-.15.42-.32.66-.5 1.49-1.13 3.53-2.68 6.44-4.52 3.78-2.43 7.81-4.8 11.98-7.06l.57-.3c3.91-2.1 7.96-4.09 12.09-5.95.36.36.7.71 1.04 1.07l1.4 1.44c.76.78 1.52 1.55 2.23 2.3.2.21.39.41.58.62l.43.46c1.16 1.23 2.32 2.46 3.39 3.63.17.18.32.36.47.53l.61.69c.97 1.08 1.93 2.15 2.82 3.18.18.2.34.4.5.6l.34.4c.91 1.07 1.81 2.13 2.63 3.16l.36.46c.94 1.18 1.88 2.38 2.77 3.58.86 1.16 1.73 2.35 2.63 3.64l.11.15c.29.41.57.81.84 1.21l.84 1.22c.31.46.63.91.92 1.35.3.46.56.9.83 1.34l.62 1.01c.28.45.56.9.82 1.35 2.47 4.29 4.19 8.39 5.13 12.2 1 3.56 1.4 6.86 1.21 9.79-.16 2.68-.78 5.32-1.84 7.86-.97 2.43-2.07 4.56-3.29 6.3-1.79 2.61-3.78 4.63-5.23 5.95l-.4-.49-.76-.95zm7.24-44.65a7.22 7.22 0 0 1-.23-.36l-.54-.85c-.18-.28-.36-.56-.54-.85-.6-.93-1.24-1.85-1.91-2.8l-.17-.24c-.08-.12-.15-.23-.23-.34l-.26-.36c-.82-1.16-1.72-2.42-2.73-3.77-.89-1.18-1.79-2.36-2.77-3.58l-.16-.21c-.08-.1-.15-.2-.28-.36l-.12-.16c-.7-.86-1.46-1.76-2.22-2.66l-.74-.88-.58-.7a224.51 224.51 0 0 0-3.22-3.62l-.39-.44-.52-.58c-1.33-1.46-2.75-2.97-4.22-4.52l-.41-.44c-1.7-1.77-3.45-3.56-5.2-5.31l-.62-.63c0-.01-.01-.02-.01-.02-.03-.09-.08-.19-.12-.3l-.08-.2c-.2-.49-.42-1-.68-1.56-.12-.25-.25-.51-.38-.78-.27-.53-.56-1.09-.88-1.66l-.11-.2c-.11-.2-.22-.4-.34-.6-.49-.86-1.02-1.75-1.61-2.7-1.67-2.69-3.78-5.8-6.44-9.52l-8.88-12.13 1.14-.65c.45-.26.95-.53 1.5-.83.12-.07.25-.13.37-.2.61-.33 1.27-.67 1.99-1.05l.19-.1c.82-.42 1.7-.88 2.66-1.34l.55-.26c1.85-.91 3.52-1.7 5.08-2.41l.57-.25c1.97-.88 3.62-1.59 5.19-2.24l.36-.14c4.24-1.68 9.03-3.32 14.23-4.88.33.44.65.86.96 1.29l1.33 1.78c.62.83 1.24 1.66 1.82 2.45l.69.96c1.11 1.52 2.19 3.02 3.2 4.45l.24.35c1.12 1.6 2.2 3.16 3.21 4.67l.29.44c.96 1.45 1.88 2.86 2.74 4.23l.45.74c.76 1.22 1.49 2.42 2.16 3.57l.43.77.44.78c.47.83.94 1.67 1.36 2.46.21.4.4.79.59 1.17l.47.94c.27.54.55 1.09.79 1.6.3.65.57 1.27.83 1.89l.37.87c.12.27.24.54.34.8l.21.52c2.01 4.89 3.21 8.96 3.68 12.43.58 3.86.23 7.15-.19 9.85-.77 4.86-3.04 9.35-6.76 13.36-2.38 2.58-4.59 4.36-5.89 5.31zm11.56-45c-.02-.05-.05-.1-.07-.16l-.17-.36c-.26-.59-.53-1.18-.82-1.78-.33-.68-.68-1.38-1.04-2.09a88.387 88.387 0 0 0-2.26-4.18c-.32-.57-.64-1.13-.98-1.71-.53-.9-1.1-1.84-1.69-2.78l-.35-.56c-.22-.36-.44-.72-.68-1.09a212.6 212.6 0 0 0-2.09-3.21l-.44-.66c-.2-.3-.39-.6-.6-.9-.8-1.18-1.65-2.42-2.51-3.66l-.41-.59c-.2-.29-.4-.58-.62-.88-.98-1.39-2.03-2.83-3.09-4.29l-.87-1.21c-1.4-1.9-2.86-3.86-4.41-5.89l-.59-.78v-.01c-.02-.09-.05-.19-.08-.28l-.05-.17c-.15-.53-.33-1.11-.54-1.71-.09-.25-.18-.51-.28-.77-.21-.58-.46-1.18-.72-1.82l-.34-.81c-.4-.92-.83-1.88-1.32-2.91-.66-1.39-1.44-2.93-2.31-4.59l-2.89-5.57c-.5-.94-1.03-1.92-1.6-2.97l-.74-1.35c-.36-.66-.72-1.31-1.11-2.02l-3.84-6.81c.27-.12.56-.25.87-.38l.77-.32c.31-.13.64-.27 1-.41l.66-.27a161.115 161.115 0 0 1 4.84-1.84c.37-.12.74-.24 1.12-.36.32-.1.63-.2.94-.3 5.82-1.89 11.76-3.51 17.68-4.82l.63-.14c1.81-.39 3.76-.78 6.14-1.22l.57-.12c2.22 3.71 4.28 7.31 6.11 10.7l.45.85c.77 1.44 1.53 2.87 2.24 4.26.25.5.49.98.73 1.47l.71 1.45c.33.67.67 1.34.98 1.99.34.71.65 1.41.96 2.1l.65 1.43c.19.4.37.81.54 1.2.35.8.67 1.59.99 2.37l.44 1.05c.16.39.33.78.48 1.16.25.64.48 1.27.71 1.89l.46 1.26c.17.44.33.88.48 1.31.12.34.22.67.33 1l.36 1.1c.26.79.52 1.58.75 2.34 1.24 4.27 1.9 8.44 2.07 13.1.14 3.51-.26 6.78-1.19 9.71-1.71 4.96-4.52 9.18-8.35 12.54a38.22 38.22 0 0 1-6.61 4.47zm15.94-46.25c-.28-.77-.57-1.55-.86-2.33-.28-.75-.57-1.5-.87-2.27-.31-.78-.64-1.57-.98-2.36l-.1-.25c-.29-.7-.58-1.39-.9-2.09-.34-.78-.71-1.57-1.07-2.36l-.35-.76c-.26-.57-.52-1.14-.8-1.72-.47-.98-.97-1.98-1.47-2.98l-.29-.58c-.24-.49-.48-.97-.74-1.47-.55-1.08-1.14-2.18-1.73-3.28l-.51-.97c-.17-.33-.35-.66-.53-1-.77-1.41-1.59-2.85-2.41-4.31l-.66-1.17c-1.13-1.95-2.26-3.88-3.38-5.72l-.5-.83c0-.02-.01-.03-.01-.05-.13-1.02-.35-2.17-.66-3.52-.06-.27-.14-.56-.21-.83-.38-1.48-.79-2.9-1.25-4.33-.98-3.01-2.27-6.53-3.95-10.77l-5.73-13.92c.25-.07.53-.15.83-.23l2.57-.69c.6-.16 1.24-.32 1.93-.48l.45-.11c.88-.21 1.82-.43 2.82-.65l1.06-.21c1.47-.32 3.23-.68 5.05-1.02.22-.04.45-.08.68-.12.23-.03.45-.07.68-.11 1.63-.29 3.26-.57 4.91-.81.14-.02.3-.04.45-.06l.29-.04c4.12-.57 9.02-1.01 14.58-1.29l.1.23c.83 1.9 1.63 3.77 2.37 5.57.11.26.2.51.3.75l.21.53c.61 1.48 1.2 2.97 1.75 4.37l.61 1.61a542.9 542.9 0 0 1 1.87 4.92l.09.26c.63 1.72 1.12 3.1 1.53 4.34.29.85.54 1.68.8 2.5l.36 1.14c.13.41.26.81.38 1.2.38 1.27.71 2.49 1.02 3.71l.11.39c.05.16.09.32.13.48.25 1 .46 1.93.66 2.88l.16.72c.06.27.13.53.18.79.11.54.19 1.05.28 1.57l.23 1.31c.09.48.17.97.24 1.43l.02.16c.82 5 1.03 9.45.62 13.21-.36 3.73-1.42 6.79-2.51 9.54-1.94 4.54-5.16 8.26-9.87 11.37-2.55 1.81-5.1 3.01-6.9 3.73-.05-.13-.09-.27-.14-.4l-.2-.58c-.27-.67-.5-1.35-.74-2.04zm20.62-48.28c-.11-.39-.22-.78-.34-1.18-.32-1.07-.68-2.19-1.07-3.38l-.18-.56-.24-.75-.05-.13-.39.14.35-.28c-.43-1.31-.93-2.67-1.43-4.06l-.19-.52c-.58-1.57-1.2-3.18-1.87-4.93l-.67-1.76c-1.51-3.92-3.29-8.2-5.29-12.74l-.39-.9h.01c0-.09-.01-.19-.01-.28l-.01-.23c-.02-.54-.06-1.12-.11-1.75-.02-.26-.05-.54-.09-.82-.07-.62-.16-1.28-.27-1.97l-.13-.83c-.17-1-.36-2.04-.59-3.17-.23-1.05-.51-2.28-.82-3.63l-.16-.67c-.12-.52-.26-1.11-.39-1.67l-1.9-7.59c-.18-.68-.38-1.42-.57-2.15-.15-.58-.3-1.14-.46-1.75-.2-.76-.43-1.57-.65-2.38l-1.61-5.76 1.58-.26c.38-.06.78-.12 1.21-.19l.67-.1c.67-.09 1.37-.19 2.15-.29l.13-.02c.9-.12 1.88-.23 2.92-.34.5-.05 1-.07 1.51-.11.34-.02.68-.04 1.02-.07 8.12-.58 16.42-.64 24.66-.17.2.02.4.02.6.03l.17.01c1.92 6.24 3.53 12.14 4.8 17.54l.21.97c.34 1.48.67 2.94.96 4.37.1.52.2 1.02.29 1.52l.28 1.49c.14.7.27 1.41.39 2.09.11.62.2 1.22.28 1.82l.26 1.67c.07.47.15.94.21 1.39.08.62.15 1.22.22 1.82l.16 1.41c.06.49.12.98.16 1.46.04.38.06.75.09 1.13l.1 1.4c.06.71.11 1.43.14 2.11.23 5.63-.47 10.03-1.12 13.23-.71 3.44-1.89 6.52-3.5 9.14-2.87 4.44-6.71 7.97-11.12 10.21-2.84 1.47-5.57 2.32-7.48 2.79-.02-.09-.03-.19-.05-.28l-.1-.52c-.11-.61-.23-1.23-.35-1.85-.17-.81-.36-1.65-.56-2.48l-.13-.53c-.1-.43-.2-.86-.31-1.3-.22-.88-.48-1.79-.74-2.71l-.19-.68zm93.51-138.65c-.07.22-.15.45-.23.66-.69-.21-1.38-.4-2.06-.59l-2.05-.58c-.46-.14-.93-.28-1.4-.4-1.65-.45-3.3-.86-4.94-1.26l-.85-.21c-.44-.12-.88-.23-1.32-.33-1.53-.35-3.16-.7-5.27-1.14l-.75-.16c-.36-.08-.72-.16-1.08-.23-2.02-.39-4.1-.76-6.34-1.11l-.24-.04c-.16-.03-.31-.06-.53-.09l-.13-.02c-1.62-.22-3.07-.39-4.36-.53l-.71-.07c-.35-.04-.69-.07-1.01-.1l-1.49-.13c-.29-.02-.57-.05-.82-.06l-.53-.04c-.21-.01-.41-.03-.57-.03l-.31-.02c-.41-.02-.75-.04-.96-.05-.75-.24-1.48-.46-2.21-.68l-2.38-.74c-.72-.23-1.44-.45-2.14-.65-.36-.1-.7-.19-1.05-.28-.25-.07-.5-.13-.76-.2-6.22-1.68-11.99-2.83-17.16-3.41-.28-.03-.56-.05-.83-.07-.2-.01-.4-.02-.6-.04-1.17-.11-2.43-.22-3.68-.29-.4-.02-.8-.03-1.2-.05l-1.07-.03c-1.51-.05-3-.07-4.47-.03l-.33.01c-1.03.02-2.06.05-3.07.11-.48.02-.96.06-1.44.1l-1 .07c-.21.01-.42.03-.62.04.51-2.32 1.49-5.67 3.29-9.32 1.31-2.55 2.81-5.24 4.95-7.62 2.34-2.69 5.05-5.09 8.06-7.14 1.67-1.14 3.45-2.18 5.3-3.1 2.07-1.05 4.09-1.84 6.2-2.43 4.84-1.42 10.13-2.22 15.72-2.35 1.09-.05 2.23-.02 3.5.02.16.01.32 0 .48 0 .18 0 .37 0 .57.01.2.01.41.03.61.05.17.02.34.03.51.05 4.48.29 9.3 1.05 14.32 2.26 3.8.91 7.69 2.07 11.56 3.44 2.06.72 4.08 1.5 6.18 2.37.36.15.72.31 1.07.48.26.12.53.24.79.35 1 .44 2.17.96 3.34 1.51l-.31 3.46c-.12 1.34-.23 2.64-.33 3.9-.24 2.85-.49 5.8-.76 8.34-.44 4.37-.92 8.11-1.43 11.12-.16.97-.33 1.88-.51 2.73-.04.19-.08.37-.12.55l-.07.3c-.12.54-.24 1.07-.37 1.57-.07.28-.14.55-.22.81-.1.47-.23.9-.37 1.31zm104.22-119.93c2.43.15 4.92.47 7.4.95 1.08.22 2.5.52 3.89.91 1.32.4 2.71.86 4.13 1.39 2.41.9 4.92 2 7.68 3.38.2.1.39.19.59.28.24.11.47.22.71.35.3.16.6.33.91.5.23.13.46.26.7.39l.56.3c.74.41 1.49.81 2.24 1.25l.11.07c1.47.87 2.96 1.81 4.44 2.8 1.59 1.07 3.17 2.19 4.7 3.34 1.61 1.25 3.24 2.6 4.86 4 1.58 1.37 3.22 2.86 4.85 4.42.28.26.55.54.83.82l.55.54c.93.91 1.86 1.83 2.78 2.77v.01c-.48 1-.95 1.98-1.39 2.89l-.24.51c-.54 1.11-1.04 2.14-1.54 3.15l-.43.87c-.49 1-.95 1.92-1.4 2.83l-.34.67c-.55 1.09-1.07 2.12-1.57 3.09l-1.03 1.99c-1.63 3.16-3.04 5.9-4.26 7.99-.49.85-.93 1.59-1.36 2.28l-.33.53c-.39.63-.78 1.22-1.12 1.72l.35.24-.43-.12c-.33.47-.63.88-.9 1.25l-.2.27c-.19.23-.36.45-.53.65l-.54-.42-1.8-1.4c-.79-.6-1.56-1.18-2.33-1.75-.4-.3-.79-.59-1.18-.87-.72-.52-1.43-1.02-2.13-1.51l-1.28-.89c-.51-.35-1.02-.69-1.52-1.02l-.25-.16c-.5-.33-1-.67-1.48-.98l-1.74-1.11c-.43-.28-.86-.55-1.28-.81l-.94-.57c-.61-.38-1.23-.75-1.82-1.1l-2.46-1.43c-.81-.46-1.58-.89-2.3-1.3-1.49-.82-2.81-1.52-3.99-2.13l-.16-.08c-.54-.28-1.04-.53-1.51-.77l-.41-.21c-.35-.17-.67-.33-.96-.47-.13-.07-.24-.12-.36-.17l-1.1-.53c-.2-.09-.36-.16-.51-.23l-.71-.32-.04-.02c-.56-.46-1.12-.89-1.69-1.33l-.9-.7c-.3-.23-.59-.46-.88-.7-.54-.43-1.09-.87-1.64-1.27-.39-.29-.78-.56-1.18-.83-.25-.17-.51-.35-.76-.53-4.91-3.51-9.76-6.5-14.82-9.15-1.53-.79-3.13-1.56-4.77-2.31l-.27-.13c-1.35-.61-2.75-1.17-3.87-1.62-.17-.07-.35-.15-.53-.22-.23-.1-.46-.2-.67-.28l-.1-.04c-1.32-.5-2.56-.9-3.49-1.18-.28-.09-.55-.17-.82-.25l-.13-.04c-.86-.25-1.68-.48-2.46-.68 1.86-2.96 3.95-5.43 6.37-7.54 5.06-4.52 10.91-7.65 17.37-9.29 4.06-.89 8.39-1.19 12.83-.94zm116.45-18.08c4.8 1.54 9.58 3.83 14.21 6.81 1.08.72 2.22 1.53 3.47 2.49.06.05.12.09.24.17.68.53 1.37 1.11 2.06 1.7l.45.39.53.44c.24.2.49.4.74.62.39.35.79.72 1.18 1.1l1.22 1.14c.47.43.94.86 1.41 1.33.16.16.33.34.49.51l.48.51c.94.95 1.91 1.94 2.86 2.99 1.35 1.49 2.68 3.05 4.07 4.76.19.24.38.49.56.73.15.2.3.4.46.6.95 1.2 1.87 2.39 2.76 3.64.27.38.53.77.8 1.16l.51.75.29.42c.66.95 1.31 1.9 1.94 2.88.32.51.64 1.03.95 1.55l.54.9c.47.77.95 1.55 1.41 2.34l-10.06 12.1c-2.84 3.37-5.36 6.19-7.48 8.4-.68.7-1.28 1.31-1.87 1.88l-.44.43c-.54.51-1.05.99-1.5 1.39l.28.32-.41-.21c-.42.37-.8.68-1.15.96-.09.08-.19.15-.28.22-.23.18-.45.35-.67.5a117.85 117.85 0 0 0-4.31-5.28l-.16-.19c-.09-.11-.2-.22-.29-.33l-.25-.28c-1.35-1.55-2.8-3.16-4.41-4.91l-.27-.3c-1.18-1.26-2.37-2.48-3.57-3.69-.12-.13-.25-.26-.37-.39-.13-.13-.26-.27-.38-.39-1.15-1.16-2.31-2.26-3.46-3.36-.16-.15-.31-.3-.47-.46-.21-.21-.42-.41-.63-.61l-.28.31.2-.39-.21-.19a167.59 167.59 0 0 0-6.07-5.37l-.65-.51c-.21-.17-.4-.32-.57-.45l-.24-.19c-.26-.2-.47-.36-.61-.46a170.49 170.49 0 0 0-4.01-5.05c-.3-.36-.61-.71-.92-1.06-.22-.25-.43-.49-.65-.75l-.29-.34c-.78-.91-1.56-1.82-2.34-2.69-.43-.46-.85-.91-1.28-1.35l-1.24-1.3c-.58-.61-1.16-1.23-1.74-1.81-.53-.53-1.05-1.02-1.58-1.52l-.97-.93c-.59-.56-1.17-1.12-1.76-1.65-.56-.5-1.11-.97-1.67-1.45l-.77-.65c-.64-.54-1.27-1.09-1.91-1.6-.61-.49-1.21-.95-1.82-1.4l-.24-.18a59.962 59.962 0 0 0-4.3-3.04c-.81-.53-1.61-1.06-2.42-1.54-.62-.38-1.24-.73-1.85-1.07-.19-.11-.38-.22-.58-.34-.13-.07-.25-.15-.38-.22 2.39-2.27 5.13-4.29 7.96-5.88 5.82-3.06 12.45-4.7 19.18-4.74 3.58-.09 7.73.56 12.53 2.08zm208.75 36.34c3.39.79 6.78 2.08 10.06 3.83 3.69 1.98 7.16 4.52 10.3 7.53 3.52 3.66 6.68 7.99 9.38 12.86.71 1.28 1.42 2.66 2.12 4.12.66 1.39 1.3 2.84 1.91 4.36.13.32.25.65.37.99l.23.6c.08.21.16.42.26.72.8 2.27 1.57 4.88 2.36 7.97.48 1.9.92 3.9 1.32 5.94.05.28.1.57.15.86.03.22.07.44.11.66.27 1.46.54 3.03.77 4.63.06.42.11.86.16 1.29.04.3.07.6.11.9l.05.37c.16 1.25.31 2.5.44 3.77.05.57.09 1.14.13 1.71l.09 1.3c.07.89.13 1.77.18 2.66l-2.47 1.07-11.04 4.62-9.4 3.59c-.75.26-1.46.51-2.13.72-.98.32-1.84.58-2.65.81l-.6.17c-.67.19-1.29.35-1.83.49l-.24.06c-.6.15-1.12.26-1.6.36l-.33.06c-.26.05-.49.09-.71.12-.09-.43-.17-.85-.26-1.27l-.39-1.95c-.26-1.25-.52-2.46-.79-3.62l-.23-1.03c-.28-1.19-.55-2.31-.82-3.41l-.2-.79c-.29-1.15-.58-2.23-.86-3.28l-.13-.48c-.31-1.12-.61-2.18-.91-3.17l-.05-.16c-1.04-3.49-1.92-6.04-2.49-7.58-.58-1.58-1.12-2.96-1.61-4.17-.02-.07-.05-.13-.07-.19-.21-.53-.42-1.03-.61-1.49l-.16-.39c-.15-.37-.3-.72-.44-1.04l-1.22-2.71c-.15-.94-.33-1.85-.51-2.77l-.21-1.09c-.07-.37-.14-.75-.21-1.13-.11-.63-.22-1.25-.35-1.87-.08-.37-.16-.72-.25-1.07-.06-.25-.13-.51-.19-.77l-.1-.46c-.33-1.46-.66-2.96-1.04-4.39-.65-2.47-1.25-4.52-1.82-6.27-.65-1.91-1.34-3.81-2.08-5.65-1.05-2.64-2.27-5.31-3.72-8.16l-.21-.43c-.08-.17-.17-.34-.25-.51-1.22-2.34-2.6-4.68-4.08-6.97-.05-.08-.1-.16-.14-.24 2.29-.62 5.72-1.32 9.82-1.41 3.06-.06 6.11.2 9.08.78zm171.2 150.73c.02-.2.03-.4.05-.6l.03-.48c.1-1.12.23-2.59.31-4.05.02-.42.03-.83.04-1.24l.02-.7c.03-1.07.07-2.13.06-3.18 0-.51-.02-1.02-.03-1.52l-.01-.45a75.98 75.98 0 0 0-.12-3.06c-.03-.51-.07-1.02-.11-1.52l-.02-.27c-.02-.24-.04-.48-.05-.72-.01-.19-.02-.37-.04-.56a41.83 41.83 0 0 1 17.01 8.14c2.63 2.25 5.03 4.95 7.14 8.04 2.39 3.51 4.28 7.36 5.64 11.44 1.43 4.87 2.24 10.15 2.38 15.72.04 1.48.03 3.03-.03 4.63-.03.88-.1 1.77-.17 2.67l-.04.53c-.02.22-.03.44-.04.67-.02.3-.03.6-.07.9-.05.44-.12.91-.19 1.39-.04.28-.09.55-.12.82l-.1.76c-.09.65-.17 1.31-.3 2.01-.04.2-.09.42-.13.65-.04.2-.09.39-.12.58-.28 1.44-.56 2.85-.92 4.4-.49 2.02-1.02 4.04-1.6 6l-.15.48-.14.44c-.59 1.93-1.1 3.52-1.62 5-.12.33-.24.66-.37.98-.09.24-.19.48-.27.72-.55 1.49-1.05 2.84-1.61 4.19-.2.49-.42.99-.64 1.49l-.45 1.04c-.38.88-.76 1.77-1.16 2.66l-4.14-.31-12.03-1.04c-.45-.04-.88-.09-1.29-.13l-1.9-.21c-.64-.07-1.22-.14-1.81-.21l-.99-.12c-.62-.08-1.18-.15-1.75-.23l-.74-.1c-.77-.11-1.49-.23-2.17-.34-.98-.17-1.85-.33-2.66-.49l-.54-.11c-1.45-.3-2.69-.6-3.69-.89l-.32-.09c-.29-.09-.55-.17-.8-.25.15-.49.28-.97.42-1.46l.47-1.65c.35-1.25.68-2.45.99-3.62l.25-.93c.31-1.22.6-2.38.87-3.51l.16-.66c.29-1.2.54-2.35.78-3.45l.08-.36c.25-1.15.47-2.23.67-3.27l.03-.18c.2-1.04.38-2.01.53-2.92l.02-.13c.14-.83.27-1.58.37-2.29l.38-2.6c.1-.78.19-1.52.26-2.22l.51-5.33c.02-.3.05-.59.06-.85l.07-1.14-.42-.02.42-.08c.03-.49.05-.88.06-1.11.38-1.15.72-2.29 1.05-3.44l.24-.8c.09-.32.2-.64.3-.96.15-.48.3-.96.43-1.44.43-1.53.8-3.06 1.16-4.54l.07-.29.21-.82c.09-.35.19-.71.27-1.06.57-2.53.98-4.56 1.28-6.4.33-2.01.59-4.02.78-5.95zm-7.92 41.28zm-74.27-90.01zm102.64 281.18zm99.04-.36c-.9 2.58-2 5.19-3.28 7.76a76.632 76.632 0 0 1-4.49 7.78l-.29.44c-2.12 3.2-4.13 5.84-6.31 8.3l.31.28-.39-.19c-1.37 1.56-2.96 3.25-4.87 5.17-1.24 1.23-2.44 2.42-3.65 3.54l-.45.41a143.47 143.47 0 0 1-3.6 3.19l-.84.72c-1.26 1.06-2.63 2.16-4.18 3.38l-.38.3c-1.14-.71-2.22-1.39-3.28-2.05-9.03-5.69-15.1-9.77-19.12-12.85l-.48-.36c-.59-.44-1.15-.86-1.65-1.25l-.62-.49c-.53-.42-1.02-.82-1.44-1.18l-.16-.14c-.48-.41-.87-.77-1.22-1.1l-.24-.23c-.2-.19-.37-.37-.53-.53.03-.04.07-.07.1-.11l.33-.35c1.55-1.58 2.93-3.03 4.22-4.43l1.03-1.13c1.53-1.68 2.88-3.2 4.12-4.66l.6-.72c1.48-1.75 2.73-3.29 3.84-4.72l.32-.43c1.3-1.69 2.35-3.13 3.27-4.47l-.34-.24.41.16.24-.36c.69-1 1.32-1.91 1.89-2.76l.31-.46c.58-.88 1.08-1.66 1.52-2.35l.26-.4c.42-.66.76-1.21 1.03-1.67l.13-.21c.23-.39.42-.7.47-.83 1.2-1.16 2.37-2.36 3.49-3.52l.17-.18c.2-.21.4-.41.6-.61.23-.23.46-.46.68-.69.56-.58 1.08-1.18 1.61-1.76l.78-.88c.27-.3.54-.6.82-.89.49-.53.98-1.07 1.44-1.61 3.21-3.73 5.7-7.3 7.51-10 .11-.17.22-.35.33-.52.08-.14.17-.28.26-.42.89-1.37 1.55-2.43 2.15-3.43.21-.35.41-.7.6-1.05l.33-.58c.54-.95 1.08-1.91 1.58-2.86.23-.44.45-.89.67-1.34l.16-.33c.48-.97.95-1.94 1.39-2.9.2-.45.4-.9.59-1.36l.37-.84c.08-.19.17-.38.25-.58 1.81 1.53 4.31 3.95 6.7 7.24 4.14 5.74 6.55 11.9 7.16 18.34.46 4.15.33 8.48-.39 12.87-.3 2.15-.92 4.56-1.84 7.14zm-11.07-64.88c-.35 5.42-1.37 10.47-3.13 15.45-.52 1.42-1.12 2.88-1.77 4.36l-.05.13c-.33.74-.7 1.49-1.06 2.23l-.29.6c-.11.23-.22.45-.32.67-.16.35-.32.69-.5 1.03-.13.26-.28.51-.42.76-.12.21-.24.42-.35.63l-.24.45c-.48.89-.96 1.78-1.52 2.71l-.07.12c-.88 1.48-1.79 2.92-2.7 4.29-1.76 2.62-4.17 6.07-7.21 9.6a135.96 135.96 0 0 1-4.39 4.86c-.29.31-.6.62-.91.93-.22.22-.44.44-.66.67l-.11.12c-.82.83-1.63 1.67-2.48 2.5l-5.9-2.83c-.39-.19-.79-.38-1.16-.57-.99-.49-1.96-.96-2.92-1.44-.21-.09-.42-.2-.62-.3l-3.47-1.71c-4.02-1.96-7.39-3.71-10.02-5.21-.85-.49-1.6-.93-2.29-1.35l-.51-.32c-.64-.4-1.23-.78-1.74-1.12l-.24.35.14-.42c-.48-.32-.88-.62-1.25-.9l-.28-.22c-.23-.18-.45-.35-.64-.51 1.23-1.58 2.38-3.12 3.37-4.45l.28-.36c.12-.16.24-.31.37-.48l.13-.19c.06-.07.12-.15.16-.22.1-.14.2-.29.3-.44.08-.13.17-.26.26-.38 1.26-1.81 2.4-3.5 3.58-5.33l.21-.32c.87-1.35 1.7-2.71 2.54-4.11l.34-.54.39-.63c.85-1.43 1.66-2.86 2.46-4.29l.29-.51c.14-.23.27-.47.38-.67l.11-.19c.8-1.46 1.49-2.77 2.09-3.94l.83-1.65 1.98-4.2c.51-.64.99-1.27 1.47-1.92l1.36-1.78c.43-.56.86-1.11 1.27-1.67.26-.35.5-.71.74-1.07.17-.24.33-.49.51-.73 3.56-5.06 6.6-10.03 9.04-14.79 2.15-4.24 3.54-7.41 4.53-10.26a83.75 83.75 0 0 0 1.95-6.5c.03-.12.07-.25.12-.38 2.92 1.83 5.43 3.9 7.66 6.31 4.41 4.9 7.64 10.92 9.35 17.42.93 3.51 1.26 7.69 1.01 12.71zm-21.1-39.91c-.5 2.27-1.17 4.7-2.06 7.42-.07.23-.15.46-.22.69-.1.33-.2.66-.32 1l-.19.49c-.95 2.62-2.27 5.58-4.16 9.3-.89 1.74-1.88 3.53-2.92 5.31-.09.15-.19.31-.29.46-.09.15-.19.29-.27.44-1.04 1.75-1.88 3.1-2.72 4.38-.2.3-.41.6-.61.9-.16.23-.32.46-.48.7-.88 1.3-1.68 2.48-2.53 3.66-.32.45-.66.89-1 1.33l-.51.67c-.64.86-1.28 1.71-1.95 2.56-.46-.15-.91-.3-1.37-.44l-2.36-.77c-.58-.19-1.13-.37-1.68-.56l-8.55-2.91c-.36-.13-.73-.25-1.07-.37l-2.13-.77c-.32-.12-.64-.23-.94-.34-.46-.16-.88-.32-1.3-.49l-.77-.29c-.23-.09-.45-.17-.67-.25-.36-.14-.7-.27-1.03-.4l-1.39-.55c-.76-.31-1.46-.6-2.12-.88-.96-.42-1.79-.8-2.55-1.16-.19-.09-.37-.17-.56-.27-.64-.3-1.23-.59-1.77-.87-.05-.02-.1-.05-.15-.08-.56-.29-1.03-.55-1.45-.79l-.28-.16c-.22-.13-.42-.26-.6-.37.05-.09.1-.18.15-.26.1-.19.21-.37.31-.55 1.09-1.86 2.03-3.52 2.87-5.07l.24-.44a184.2 184.2 0 0 0 3.19-6.11l.29-.57c.96-1.94 1.85-3.82 2.66-5.61l.32-.72c1.07-2.41 1.8-4.21 2.24-5.35l.05-.1c.6-1.56 1.11-2.95 1.54-4.19l.08-.23c.19-.54.37-1.06.53-1.53l.09-.28c.15-.44.28-.85.44-1.33l.03-.1c.13-.4.24-.76.36-1.14.2-.65.35-1.14.42-1.42l.18-.3.15-.25c2.29-3.66 4.37-7.35 6.17-10.94l.13-.24c.05-.1.11-.2.16-.3 1.21-2.41 2.06-4.23 2.77-5.89.48-1.15.93-2.33 1.36-3.48l.31-.82c.07-.19.15-.38.22-.58.1-.24.2-.49.28-.74.43-1.21.81-2.41 1.19-3.61l.21-.62c.56-1.8 1.05-3.57 1.47-5.26.03-.14.07-.28.09-.43l.08-.35c.35-1.47.67-2.95.94-4.39.05-.28.1-.56.14-.83l.2-1.2c.07-.39.14-.78.2-1.17 2.12 1.04 5.14 2.78 8.27 5.4 2.34 1.97 4.47 4.18 6.32 6.58 2.01 2.8 3.7 6 5.02 9.52 1.46 3.91 2.39 8.11 2.75 12.46.23 5.04-.25 10.38-1.45 15.85zm-24.36-52.89a75.95 75.95 0 0 1-.74 5.08l-.06.28-.06.28a82.6 82.6 0 0 1-.93 4.41c-.08.32-.17.65-.26.97l-.18.65c-.29 1.1-.61 2.34-.98 3.55-.06.21-.14.43-.21.65l-.15.46c-1.57 4.9-3.59 9.84-5.99 14.69-1.73 3.41-3.73 6.97-5.94 10.56l-8.25-1.71c-.74-.16-1.4-.3-2.09-.46l-1.64-.36c-1.16-.26-2.27-.51-3.3-.75-4.35-.99-8.11-1.85-10.98-2.67-.95-.26-1.78-.52-2.57-.76l-.54-.17c-.72-.24-1.4-.46-2.05-.71-.56-.21-1.05-.41-1.49-.59l-.3-.13c-.28-.13-.54-.25-.76-.35.48-1.07.91-2.11 1.34-3.14l.44-1.05c.12-.29.25-.59.38-.88l.53-1.24c.8-1.99 1.57-4.05 2.36-6.33l.14-.38c.06-.16.12-.31.17-.46.68-1.97 1.31-3.94 1.95-6.04l.19-.59c.55-1.85 1.11-3.8 1.7-5.97.43-1.64.79-3.09 1.09-4.39l.39-1.72.92-4.55c.31-.67.6-1.35.89-2.02l.92-2.1c.3-.67.6-1.35.88-2.02.09-.23.17-.45.26-.67.07-.19.14-.37.21-.56 2.37-5.94 4.19-11.63 5.56-17.4.4-1.71.75-3.39 1.1-5.3l.04-.2c.02-.09.04-.18.06-.26.13-.72.22-1.4.31-2.07l.11-.81c.04-.28.08-.56.13-.85.08-.5.16-1 .22-1.55.2-2.07.31-4.3.34-6.82 0-.12.01-.23.02-.35 3.32 1.09 6.25 2.5 8.93 4.3 5.46 3.69 10.04 8.74 13.24 14.6 1.8 3.5 3.16 7.6 4.04 12.19.45 2.37.74 4.87.87 7.43.13 2.92.06 5.64-.26 8.28zm-66.27-84.08c-.01.23-.01.47-.02.71l-.01.62c-.01.92-.02 1.84-.07 2.78l-.03.41c-.1 1.77-.22 3.36-.37 4.84-.19 1.9-.44 3.82-.75 5.73-.29 1.76-.7 3.78-1.24 6.14-.46 2-1 4.13-1.61 6.33-.12.44-.26.89-.4 1.34l-.25.82c-.34 1.16-.69 2.32-1.06 3.48l-3.99.16c-1.02.04-1.97.07-2.92.1h-.14c-.42.01-.86.03-1.26.05-1.01.03-1.93.05-2.86.07l-1.04.03c-1.21.03-2.35.05-3.43.06l-1.01.01c-4.24.07-7.58.12-10.28.01-.98-.03-1.85-.08-2.66-.13l-.59-.04c-.75-.06-1.46-.12-2.16-.2-.59-.07-1.1-.14-1.56-.22l-.35-.06c-.28-.05-.55-.1-.82-.16.15-.81.27-1.6.39-2.38.07-.43.13-.86.2-1.3l.19-1.14c.12-.7.24-1.41.33-2.08.21-1.48.36-2.87.51-4.27l.16-1.41c.08-.66.16-1.32.21-1.95.1-1.11.17-2.14.23-3.18l.12-1.67c.05-.69.1-1.38.14-2.04.04-.83.07-1.6.09-2.38l.07-1.92c.02-.56.05-1.11.06-1.69h-.42l.42-.12c.01-.81.02-1.57.02-2.29v-2.09l-.22-6.55c.16-.83.3-1.66.44-2.48l.18-1.08c.06-.36.13-.72.19-1.08.12-.65.23-1.29.33-1.93.07-.49.13-.97.19-1.45.03-.3.07-.61.11-.91.8-6.03 1.18-11.81 1.15-17.18-.04-3.22-.17-6.02-.43-8.65-.03-.3-.06-.58-.1-.87l-.09-.81-.1-.86c-.3-2.04-.7-4.15-1.27-6.65-.03-.13-.06-.27-.08-.4 3.42.27 6.67.96 9.7 2.06 6.18 2.29 11.82 6.11 16.32 11.05 2.55 2.91 4.84 6.56 6.81 10.86 1 2.2 1.88 4.56 2.61 7.01.87 2.9 1.43 5.47 1.74 8.13.32 2.42.51 5.06.59 8.07l.03.72c.02.34.03.67.03 1.02.06.32.04.66.03 1.01zm-39.69-25.47c-.01.28-.03.57-.06.86-.02.23-.04.46-.05.7-.09 1.49-.19 3.08-.35 4.67-.04.45-.1.9-.16 1.35l-.14 1.18c-.14 1.26-.29 2.52-.48 3.78-.09.58-.19 1.18-.29 1.77l-.19 1.14c-.15.89-.3 1.79-.47 2.69l-1.11.19c-.82.14-1.65.28-2.44.41l-.52.09c-.68.12-1.32.22-1.97.32l-.41.07c-.67.11-1.35.22-1.98.32l-3.93.61c-.59.09-1.13.17-1.68.25l-7.06.96c-.3.04-.6.07-.88.1-.42.05-.81.09-1.2.13l-1.31.14c-.79.07-1.53.14-2.22.19-1 .07-1.87.12-2.7.15l-.76.03c-.6.02-1.15.03-1.66.03-.77.01-1.42 0-1.98-.02l-.45-.02c-.24-.01-.46-.03-.66-.05.02-.34.03-.67.04-1.01l.1-2.46c.04-1.12.07-2.2.09-3.26l.03-1.48c.01-1.09.02-2.12.01-3.14v-1.14c-.01-1.08-.03-2.1-.05-3.09l-.02-.78c-.03-1.05-.07-2.02-.12-2.96l-.02-.5c-.05-1-.11-1.92-.17-2.79l-.02-.22c-.06-.88-.12-1.68-.2-2.48l-.01-.1c-.06-.63-.11-1.18-.17-1.7l-.04-.42-.01-.13c-.19-1.68-.38-3.16-.58-4.56-.09-.63-.17-1.21-.26-1.75l-.03-.2c-.08-.5-.15-.97-.22-1.38l-.02-.12c-.22-1.32-.4-2.24-.49-2.66 1.11-13.2.36-24.93-2.28-35.87-.04-.18-.09-.35-.13-.53l-.1-.38c-.39-1.56-.77-2.92-1.15-4.18-.13-.42-.27-.83-.4-1.25l-.37-1.16c-.09-.28-.17-.56-.27-.84 2.35-.06 5.81.08 9.83.97 2.97.65 5.87 1.64 8.64 2.92 3 1.49 5.98 3.54 8.84 6.1 3.1 2.8 5.86 6.09 8.19 9.78 2.54 4.35 4.57 9.3 6.04 14.7.65 2.37 1.19 4.96 1.67 7.92.03.19.07.38.1.57.05.25.09.49.13.74.02.14.04.28.05.43l.04.35c.35 2.87.55 6.12.59 9.94-.01 1.94-.05 3.99-.15 6.08zm-214.64-69.99zm-210.35 23.21zm283.59-23.12zm59.96 33.02zm-331.88-83.77zm370.66 96.41c0 .32-.01.65-.02.98-.03.87-.09 1.75-.14 2.63l-.08 1.29c-.03.56-.06 1.11-.1 1.67-.79.23-1.56.45-2.32.67l-1.44.41c-1.09.31-2.1.59-3.11.87l-4.12 1.14a479.68 479.68 0 0 1-4.09 1.08c-4.74 1.25-8.23 2.15-10.97 2.71-.96.2-1.81.36-2.61.5l-.55.09c-1.43.24-2.69.4-3.75.48-.09.01-.19.02-.29.02-.31.02-.61.03-.9.04-.11-1.86-.25-3.79-.44-5.87l-.05-.62c-.25-2.64-.55-5.13-.9-7.39l-.15-.99c-.02-.15-.05-.3-.08-.45-.03-.13-.05-.26-.08-.39-.6-3.79-1.33-7.65-2.17-11.55l-.41.1.39-.21c-.18-.8-.36-1.55-.53-2.27l-.04-.16c-.16-.66-.31-1.3-.46-1.88l-.46-1.76-1.3-4.51c-.03-.73-.09-1.45-.14-2.17l-.15-2.24c-.05-.76-.09-1.53-.16-2.28-.05-.49-.1-.97-.16-1.44l-.12-1.01c-.67-6.04-1.66-11.71-2.96-16.86-.25-.99-.51-1.92-.78-2.89l-.04-.14c-.19-.67-.37-1.28-.58-1.95l-.26-.86c-.2-.65-.41-1.26-.62-1.87l-.21-.64c-.14-.39-.28-.77-.43-1.14l-.24-.65c-.06-.16-.12-.33-.17-.43l-.05-.14c-.78-1.93-1.68-3.9-2.84-6.2l-.15-.33c3.31-.55 6.73-.65 9.92-.31 6.54.76 12.94 3.13 18.49 6.87 3.13 2.16 6.22 5.16 9.19 8.91 3.5 4.56 5.99 8.9 7.84 13.68 4.14 10.75 6.09 23.12 5.8 36.76l-.01.7zm-99.54-72.9c.7 1.76 1.37 3.59 1.99 5.43.55 1.7 1.12 3.67 1.74 6.02.53 2.04 1.04 4.19 1.51 6.41.06.3.12.62.18.93.05.26.09.51.14.76.27 1.34.52 2.69.76 4.05l-10.61 5.99c-1.06.58-2.07 1.14-3.03 1.65l-.95.51c-3.56 1.92-6.64 3.59-9.07 4.74-.88.43-1.67.79-2.41 1.11l-.55.24c-.69.3-1.34.57-1.91.79l.15.39-.29-.34c-.53.21-1 .37-1.43.51l-.36.12c-.28.09-.55.17-.78.24-.08-.26-.16-.5-.24-.75l-.55-1.74c-.38-1.17-.76-2.31-1.15-3.41l-.15-.43c-1.58-4.48-3.34-8.83-5.38-13.29l-1.8-3.83c-.34-.7-.67-1.38-.99-2.03l-.24-.48c-.58-1.14-1.11-2.18-1.62-3.13l-.23-.43c-.51-.96-.97-1.79-1.38-2.52l-.22-.38c-.38-.68-.71-1.25-.98-1.71l-.63-1.05-.03-.05c-.24-.81-.5-1.61-.76-2.41l-.32-.98c-.11-.34-.21-.68-.32-1.02-.2-.63-.39-1.27-.6-1.89-.21-.6-.43-1.19-.66-1.78l-.39-1.02-.35-.97c-.3-.82-.59-1.63-.95-2.51-1.64-4.07-3.44-7.92-5.49-11.78-1.45-2.72-3.07-5.42-4.96-8.27-.11-.17-.22-.34-.32-.51-.16-.26-.32-.51-.46-.7l-.08-.14-.18-.24-.14-.19c-.77-1.07-1.57-2.11-2.37-3.1-.19-.24-.4-.48-.6-.72l-.65-.77c-.17-.21-.34-.42-.52-.63.78-.33 1.6-.65 2.43-.94 1.16-.41 2.23-.74 3.26-1 1.24-.28 2.53-.51 3.84-.68 6.55-.85 13.33-.1 19.59 2.17 3.83 1.56 7.57 3.75 11.11 6.51 1.91 1.49 3.79 3.17 5.58 5 1.99 2.02 3.73 4.11 5.31 6.4 1.43 2.03 2.85 4.31 4.33 6.99.12.21.23.41.35.61.15.26.31.52.45.79.13.24.24.49.36.73.09.19.19.39.28.58 1.47 2.83 2.68 5.49 3.74 8.15zm-59.24-27.43c.28.41.55.83.82 1.26l.47.74c1.66 2.57 3.07 4.94 4.3 7.24.96 1.81 1.9 3.69 2.78 5.59.13.28.25.57.38.86.1.23.19.45.29.68.66 1.47 1.26 2.8 1.82 4.19.16.41.32.83.47 1.24.1.28.2.55.31.82l.18.46c.43 1.12.86 2.24 1.25 3.38.18.51.34 1.04.51 1.57l.28.88c.31.95.62 1.91.92 2.87-.71.53-1.37 1.03-2.05 1.54l-.62.46c-1.22.93-2.47 1.87-3.61 2.71-.86.64-1.65 1.22-2.44 1.8l-1.93 1.42c-.6.44-1.19.88-1.73 1.27-1.19.85-2.23 1.58-3.33 2.35l-.72.51c-.41.28-.81.57-1.17.82-1.65 1.12-3.06 2.05-4.32 2.84-1.24.77-2.43 1.47-3.77 2.2l-.68.37c-.98.51-1.88.94-2.76 1.3-.04-.07-.08-.15-.11-.22-.09-.17-.18-.34-.26-.51-1.89-4.06-3.72-7.72-5.61-11.17-.13-.24-.26-.47-.4-.71l-.29-.52c-2.23-4.03-4.37-7.62-6.58-11.04l-.34.25.28-.34-.41-.58c-.6-.88-1.17-1.68-1.7-2.43l-.38-.53c-.61-.85-1.15-1.57-1.63-2.21l-.3-.4c-.45-.59-.84-1.09-1.16-1.5l-.79-.96c-.28-.66-.58-1.29-.87-1.92-.17-.36-.33-.71-.5-1.08l-.53-1.17c-.35-.76-.69-1.53-1.04-2.27-.17-.36-.35-.7-.53-1.04-.13-.24-.25-.48-.37-.72-2.86-5.71-5.84-10.77-8.85-15.02-.16-.23-.33-.44-.5-.66-.12-.15-.24-.31-.36-.46-.74-1-1.48-1.99-2.25-2.94-.28-.35-.57-.69-.85-1.02l-.41-.48c-.68-.81-1.36-1.62-2.05-2.4-.34-.39-.69-.75-1.04-1.12l-.27-.29c-.71-.76-1.43-1.52-2.16-2.25-.42-.42-.85-.82-1.27-1.23l-.46-.45c-.15-.15-.3-.29-.45-.44 2.07-1.16 5.23-2.68 9.21-3.78h.01c4.15-1.24 10.91-2.27 19.61-.1 2.95.78 7.39 2.13 11.81 4.89 4.31 2.69 8.41 6.11 12.2 10.17.96 1.03 1.91 2.12 2.92 3.34l.24.27c.45.54.86 1.09 1.27 1.65l.43.57c.14.19.29.39.44.58.22.3.45.58.65.87zm-56.3-10.49c.25.28.49.56.74.86.16.19.32.39.49.58l.45.51c.56.64 1.11 1.28 1.7 2.01 1.05 1.3 2.1 2.69 3.13 4.1 1.05 1.5 2.14 3.14 3.22 4.89.14.22.27.45.4.67.11.19.21.38.32.56.76 1.27 1.58 2.64 2.38 4.1.21.39.42.79.63 1.2.14.28.29.56.43.83l.25.48c.56 1.07 1.12 2.13 1.67 3.26.29.6.58 1.23.86 1.85l.64 1.39c.34.74.68 1.47 1.02 2.23l-2.97 2.84c-.57.55-1.09 1.04-1.63 1.55l-3.37 3.17-.91.85c-.89.82-1.73 1.6-2.54 2.33a249.85 249.85 0 0 1-4.66 4.13 136.43 136.43 0 0 1-3.79 3.28c-1.11.93-2.04 1.64-2.71 2.16-.25.19-.48.36-.72.53-.54.39-1.04.75-1.49 1.05-.19.13-.39.26-.57.38-.43.27-.82.51-1.16.7-.58-.95-1.17-1.87-1.76-2.8l-1.07-1.69c-.22-.35-.43-.69-.65-1.04-1.1-1.69-2.28-3.44-3.73-5.5-.12-.18-.24-.35-.36-.53-.15-.23-.3-.46-.5-.74l-.19-.26c-.87-1.17-1.77-2.32-2.68-3.47l-.54-.7c-.19-.24-.37-.48-.56-.72-1.02-1.27-2.05-2.5-3.09-3.74l-.42-.51c-.17-.21-.34-.41-.55-.66l-.31.28.23-.38-.25-.29c-.82-.95-1.59-1.82-2.29-2.6l-.32-.36c-.72-.79-1.35-1.47-1.92-2.08l-.35-.37c-.51-.53-.94-.99-1.37-1.41l-.67-.67-.29.3.18-.42-.09-.09c-.55-.97-1.13-1.91-1.7-2.85l-.49-.81c-.16-.26-.32-.53-.47-.8-.24-.4-.47-.8-.72-1.18-.46-.72-.95-1.43-1.43-2.13l-.54-.79c-.2-.3-.39-.59-.59-.88-.38-.58-.76-1.15-1.16-1.71-.07-.1-.15-.2-.23-.3l-.21-.27c-2.53-3.48-5.08-6.63-7.81-9.65-.18-.2-.37-.39-.55-.58-.15-.16-.3-.31-.45-.47-.92-.98-1.81-1.93-2.73-2.84-.33-.33-.66-.64-.99-.95l-.42-.39c-.8-.77-1.6-1.54-2.4-2.25-.35-.31-.7-.61-1.04-.9l-.41-.35c-.79-.68-1.59-1.34-2.38-1.96-.45-.36-.9-.69-1.34-1.03-.17-.13-.35-.27-.53-.41-.13-.1-.26-.2-.38-.3 1.8-1.32 4.66-3.1 8.64-4.7 2.83-1.12 5.79-1.94 8.79-2.42 3.85-.62 7.34-.67 10.68-.13 4.14.59 8.29 1.8 12.34 3.58a55.3 55.3 0 0 1 6.55 3.43c2.15 1.39 4.41 3.1 6.71 5.09 1.9 1.63 3.86 3.53 5.98 5.79.15.16.3.31.45.47.2.25.39.45.57.65zm-115.9-2.1c.46.29.93.58 1.39.9.35.24.71.51 1.06.78.21.16.42.32.64.47l.53.38c.68.49 1.36.99 2.05 1.53.3.23.59.49.89.74l.99.83c.79.65 1.59 1.31 2.38 2.01.29.26.57.53.86.8l.89.83c.83.76 1.66 1.53 2.48 2.35.31.3.61.63.92.95l.89.93c.8.81 1.59 1.63 2.38 2.5.34.37.67.76 1.01 1.14l1.03 1.18c.7.8 1.41 1.6 2.1 2.43.36.43.72.88 1.07 1.33l.99 1.24c.5.62.99 1.23 1.48 1.87l-4.39 6.93c-.43.67-.84 1.3-1.26 1.93l-.21.33c-.24.37-.48.74-.71 1.09l-1.21 1.83c-.26.39-.53.8-.78 1.17l-1.84 2.71c-.24.36-.48.69-.71 1.02l-.96 1.39c-.23.32-.45.62-.66.92l-.86 1.19c-.48.66-.95 1.27-1.38 1.84-1.57 2.02-3 3.75-4.26 5.13-.38.41-.75.79-1.11 1.13-.83-.81-1.67-1.61-2.52-2.41l-1.18-1.12-.66-.63c-1.32-1.23-2.65-2.42-3.99-3.61l-.63-.56c-.46-.42-.92-.83-1.38-1.22l-.24-.22-.33-.3c-1.58-1.34-3.08-2.59-4.65-3.85-2.12-1.7-3.89-3.04-5.43-4.1l-.47-.32c-.89-.63-1.72-1.2-2.5-1.72l-.66-.44c-.82-.55-1.53-1.01-2.19-1.43l-.56-.35c-.61-.39-1.12-.7-1.54-.96l-.36-.21c-.33-.2-.59-.35-.76-.45-.69-.72-1.39-1.41-2.09-2.1l-.77-.76c-.26-.26-.52-.53-.79-.79-.42-.43-.84-.86-1.27-1.26-.46-.44-.93-.86-1.39-1.28-.27-.24-.54-.49-.81-.73l-.84-.78c-.69-.63-1.37-1.27-2.06-1.86a139.99 139.99 0 0 0-4.9-4.04l-.15-.12c-1.61-1.2-3.26-2.37-4.91-3.48-.21-.14-.42-.27-.63-.39l-.44-.28c-.97-.63-2.12-1.37-3.29-2.07-.35-.21-.7-.41-1.05-.6l-.87-.49c-.85-.49-1.7-.97-2.55-1.42-.43-.23-.86-.44-1.29-.65l-.43-.21c-.94-.46-1.88-.93-2.82-1.36-.43-.2-.86-.39-1.3-.57l-.31-.13-.69-.3c-.16-.07-.33-.15-.49-.22 1.54-1.81 3.97-4.32 7.28-6.71 2.48-1.79 5.14-3.31 7.9-4.51 3.34-1.28 6.87-2.13 10.48-2.52 4.15-.45 8.45-.32 12.76.38 4.85.97 9.89 2.76 15.01 5.31 1.03.5 2.04 1.06 3.17 1.69.15.09.3.16.45.24.19.1.39.2.58.31.49.29.97.6 1.46.93l1.41.87zm-111.78 26.45c.34.12.68.23 1.02.36l.42.18c.15.07.31.14.46.19 3.12 1.24 6.12 2.61 8.93 4.07 1.89.99 3.76 2.03 5.55 3.09.22.13.44.27.66.41.18.12.36.23.54.34 1.23.74 2.68 1.63 4.11 2.57.37.25.73.5 1.09.76.24.17.49.35.73.51l.51.35c.94.65 1.87 1.3 2.79 1.97.47.35.94.72 1.4 1.09l1.17.91c.6.46 1.19.93 1.78 1.4l-2.69 7.92c-.31.92-.61 1.77-.91 2.63l-1.62 4.61c-.25.7-.49 1.35-.72 1.99l-.38 1.05-.71 1.88-.31.82c-.28.72-.55 1.39-.81 2.03l-.14.35c-.3.74-.6 1.44-.89 2.09-.4.92-.78 1.76-1.16 2.56l-.37.75c-.25.51-.5 1-.75 1.46-.14.26-.28.5-.41.74-.23.4-.46.79-.68 1.14l-.12.2c-.09.14-.17.28-.26.4-.7-.41-1.4-.81-2.11-1.21l-1.52-.87c-.44-.26-.89-.51-1.34-.76-1.48-.83-2.97-1.62-4.47-2.4l-.77-.41c-.42-.22-.83-.44-1.25-.65-1.57-.8-3.15-1.56-4.77-2.33-.25-.12-.49-.24-.74-.36-.34-.17-.68-.34-1.02-.49-2-.93-4.08-1.84-6.19-2.73l-.35-.16-.09-.03-.1-.05c-1.56-.61-2.96-1.12-4.2-1.57l-.2-.07c-.51-.18-.99-.35-1.43-.49l-2.04-.68c-.2-.07-.38-.13-.56-.18l-1.76-.54c-.68-.43-1.36-.83-2.04-1.23l-2.03-1.22c-.67-.41-1.34-.82-2-1.19-.24-.14-.48-.26-.72-.39-.19-.1-.37-.2-.56-.3-5.77-3.21-11.22-5.77-16.2-7.59-.27-.1-.53-.19-.8-.27-.19-.06-.38-.12-.57-.19-1.16-.39-2.33-.79-3.49-1.15-.41-.12-.81-.23-1.22-.34l-1.03-.29c-.9-.25-1.8-.5-2.69-.72-.44-.11-.88-.21-1.32-.3l-.73-.16c-.96-.21-1.91-.42-2.86-.6-.48-.09-.96-.16-1.43-.24l-1.01-.17c-.2-.03-.4-.07-.59-.1 1.05-2.13 2.8-5.16 5.42-8.27 1.87-2.16 3.96-4.41 6.63-6.23 2.93-2.06 6.14-3.75 9.52-5.01 3.15-1.13 7.41-2.44 12.51-2.64 5.07-.21 10.39.28 15.81 1.47 2.23.51 4.13 1.02 5.99 1.6l.24.08c.09.02.18.05.28.08.24.08.49.17.74.26l.83.27zm-53.2 23.16c.26.06.52.11.77.16.36.07.71.14 1.07.23.27.06.53.14.8.21.22.06.45.13.67.18 3.02.79 5.79 1.63 8.46 2.59 1.7.63 3.51 1.36 5.37 2.17.2.09.4.19.6.29l.57.27c1.32.6 2.85 1.31 4.39 2.09.38.19.76.4 1.15.61l.75.4c1.27.67 2.54 1.34 3.83 2.07.51.29 1.03.6 1.55.92l.84.5c.93.55 1.86 1.1 2.8 1.68-.15.75-.3 1.48-.45 2.2l-.38 1.83c-.21 1-.41 1.93-.62 2.87l-.34 1.56c-.21.94-.4 1.81-.6 2.67l-.29 1.28c-.18.78-.35 1.51-.52 2.23l-.3 1.29c-.2.85-.39 1.63-.58 2.4l-.18.73c-.17.68-.32 1.29-.48 1.92l-.22.85c-.14.56-.27 1.05-.41 1.59l-.74 2.79c-.27.95-.52 1.78-.77 2.57l-.18.56c-.24.72-.46 1.39-.68 1.97l.39.15-.44-.04c-.21.56-.41 1.04-.6 1.48l-.12.28-.36.78c-.28-.12-.55-.25-.82-.37l-1.62-.72c-1.04-.46-2.06-.89-3.05-1.31l-.92-.39c-1.06-.44-2.08-.84-3.07-1.23l-.59-.24c-.97-.37-1.9-.71-2.81-1.04l-1-.36c-1.58-.54-3.18-1.05-4.73-1.53l-.37-.12c-.26-.09-.52-.17-.78-.25-1.5-.46-3.09-.92-5.17-1.49-.15-.04-.3-.09-.45-.13-.15-.05-.31-.09-.5-.14l-.13-.04c-1.64-.44-3.1-.8-4.4-1.11l-.13-.03c-.59-.14-1.15-.27-1.75-.4l-.22-.05c-.43-.09-.82-.18-1.19-.26l-.39-.08c-.33-.07-.63-.13-.9-.19l-1.64-.31c-.97-.47-1.95-.9-2.92-1.33l-.9-.4c-.32-.14-.63-.28-.95-.43-.47-.22-.95-.44-1.44-.65-.92-.38-1.86-.73-2.8-1.08l-1.02-.38c-.35-.13-.7-.27-1.04-.4-.56-.22-1.12-.44-1.7-.65a120.51 120.51 0 0 0-11.97-3.56c-.27-.06-.52-.11-.78-.16-.22-.05-.45-.09-.67-.14-1.44-.32-2.64-.59-3.83-.81-.45-.08-.88-.15-1.32-.21l-.73-.12c-1.05-.17-2.1-.34-3.12-.47-.5-.06-.98-.11-1.46-.15l-.54-.05c-.99-.1-1.97-.19-2.93-.24-.62-.03-1.22-.05-1.82-.07l-.63-.03c-.13-.01-.26-.01-.39-.02 1.07-3.21 2.54-6.17 4.38-8.81 3.93-5.73 8.86-10.16 14.64-13.16 3.76-1.85 7.88-3.2 12.23-4.01 5.3-1 10.46-1.17 15.77-.51 1.54.17 3.12.4 4.76.69.8.14 1.6.32 2.41.49l.65.12zm-16.84 119.15.09-.63c.11-.67.21-1.34.31-2.04.12-.84.22-1.7.32-2.57l.03-.24c.08-.69.16-1.38.23-2.09.08-.76.14-1.55.21-2.34l.06-.68a103.867 103.867 0 0 0 .3-4.67l.04-.84.09-1.92c.04-1.07.06-2.19.07-3.32l.01-.76c.01-.51.02-1.01.02-1.53.01-1.3-.01-2.64-.02-3.98l-.01-.81c0-.38-.01-.76-.01-1.15-.03-1.58-.09-3.2-.15-4.84l-.05-1.43c-.09-2.16-.21-4.36-.36-6.63l-.06-.95.03-.1c.07-.19.13-.38.2-.58l.03-.1c.16-.49.32-1 .48-1.54.07-.26.15-.52.22-.79.16-.6.31-1.23.45-1.88l.07-.3c.03-.15.07-.3.1-.46.19-.94.38-1.92.56-2.99.51-3.05 1-6.87 1.46-11.35.26-2.42.49-5.2.74-8.14l.02-.28c.17-1.95.35-4.07.54-6.25l.03-.35 1.35.28c.47.1.99.22 1.55.35l.51.12c.66.15 1.37.32 2.12.51l.23.06c.9.22 1.86.47 2.88.74l.63.18c1.97.53 3.72 1.04 5.36 1.54.17.05.34.11.51.16.17.05.34.11.5.16 1.47.46 3.21 1.01 4.99 1.63l.3.1c4.14 1.47 8.83 3.41 13.95 5.75-.72 9.91-1.62 18.12-2.76 25.07l-.07.41c-.28 1.68-.55 3.17-.82 4.56-.04.21-.08.4-.13.59l-.1.48c-.24 1.16-.49 2.32-.74 3.39-.09.37-.19.72-.28 1.07l-.34 1.27c-.15.56-.29 1.12-.45 1.65-.21.72-.44 1.39-.66 2.05l-.25.77c-.09.28-.18.57-.28.84l-.44 1.24c-1.59 4.57-3.3 8.19-5.21 11.06-2.07 3.21-4.52 5.45-6.64 7.3-3.8 3.12-8.51 4.98-14.01 5.54-3.11.43-5.92.32-7.85.13.06-.15.08-.31.1-.47zm38.43-25.78.12-.41a64.953 64.953 0 0 0 1.16-4.14c.17-.64.33-1.29.49-1.97.2-.85.39-1.74.58-2.64l.06-.3c.12-.56.23-1.11.34-1.69.19-1 .38-2.05.56-3.1l.1-.57c.08-.48.17-.96.25-1.46.18-1.16.36-2.38.53-3.61l.11-.77c.06-.42.12-.83.18-1.27.17-1.34.34-2.76.5-4.19l.09-.81c.05-.39.09-.79.14-1.2.17-1.58.32-3.25.48-4.93l.07-.76c.03-.35.07-.7.1-1.07.2-2.35.39-4.77.57-7.32l.07-.97.01-.02c.04-.08.08-.16.12-.25l.08-.16c.24-.5.48-1.04.73-1.64.1-.25.2-.52.3-.78.22-.57.44-1.18.66-1.83l.1-.3c.06-.18.13-.36.19-.55.31-.95.62-1.96.93-3.06l.74-2.79c.14-.52.28-1.06.43-1.64l.97-3.89c.15-.63.31-1.25.47-1.93l1.19-5.15c.17-.75.34-1.5.51-2.3l1.7-8.04 1.48.49c.38.13.79.27 1.24.42.18.06.36.12.56.2 1.62.56 3.29 1.18 4.97 1.85.13.05.26.11.38.17.13.05.26.11.38.16 6.06 2.57 12.09 5.5 17.91 8.73l.31.16c1.69.94 3.46 1.97 5.58 3.24.11.07.23.14.34.2-.78 4.24-1.62 8.31-2.45 12.02l-.04.11c-.43 1.88-.88 3.76-1.36 5.6-.08.32-.17.63-.25.93l-.31 1.16c-.28 1.07-.57 2.15-.87 3.18-.17.6-.35 1.19-.53 1.77l-.47 1.56c-.17.56-.33 1.11-.5 1.65-.23.71-.46 1.39-.7 2.07l-.43 1.27c-.15.45-.3.91-.46 1.34-.21.59-.43 1.16-.65 1.73l-.54 1.39c-.16.44-.33.88-.5 1.3-.15.38-.31.74-.47 1.11l-.43 1.01c-.31.73-.62 1.46-.94 2.15-1.92 4.08-4.11 7.54-7.1 11.21-2.22 2.73-4.68 4.92-7.31 6.5-4.47 2.55-9.37 3.86-14.57 3.91-3.18-.01-5.99-.51-7.91-.97-.01-.05.01-.08.01-.11zm84.98-37.57.24-.42c.33-.56.67-1.12 1-1.69.42-.73.83-1.5 1.24-2.27l.21-.39c.22-.4.43-.8.64-1.22.44-.86.87-1.76 1.31-2.66l.26-.53c.17-.35.35-.71.52-1.08.56-1.21 1.12-2.49 1.68-3.8.05-.13.11-.25.16-.37l.26-.58c1.31-3.12 2.69-6.69 4.32-11.24 1.47-3.96 2.97-8.35 4.46-13.03l.29-.93h.01c.06-.07.12-.14.17-.22l.11-.14c.36-.43.73-.9 1.11-1.43.15-.21.31-.43.46-.65.36-.51.73-1.07 1.11-1.65l.09-.14c.12-.19.24-.37.37-.58.53-.85 1.07-1.75 1.64-2.73 1.28-2.2 2.77-5.1 4.35-8.16l1.03-1.99c.5-.97 1.02-1.99 1.56-3.07l.47-.95c.4-.8.81-1.62 1.24-2.5l.65-1.33c.4-.81.8-1.63 1.23-2.51l1.49-3.08c.26.16.55.34.88.55l.32.21c.38.24.8.51 1.24.8l.53.35c.49.32 1.02.67 1.57 1.05l.43.29c.75.51 1.54 1.05 2.38 1.66 1.51 1.07 3.17 2.32 4.93 3.72l.16.13c1.52 1.21 3.12 2.54 4.91 4.08.72.62 1.43 1.26 2.14 1.9l.9.81c3.05 2.74 5.69 5.24 8.07 7.61l-.28.6c-.85 1.85-1.68 3.65-2.5 5.37l-.27.54c-.86 1.78-1.7 3.5-2.54 5.14-.12.23-.23.44-.35.65l-.3.57c-.7 1.35-1.4 2.7-2.09 3.96-.22.4-.43.78-.65 1.16l-.71 1.25c-.45.81-.9 1.62-1.35 2.38-.48.82-.93 1.56-1.38 2.31l-.73 1.22c-.24.4-.47.8-.7 1.16-.56.9-1.08 1.7-1.6 2.5l-.57.88c-.17.26-.34.53-.5.77-.32.48-.63.91-.93 1.34l-.78 1.11c-.27.38-.53.77-.79 1.12-.27.37-.54.7-.8 1.04l-.77.99c-.29.37-.58.74-.85 1.07l-.08.09c-6.39 7.51-12.36 11.99-18.26 13.72-1.32.4-2.7.68-4.1.84-1.48.19-2.84.32-4.12.34-2.24 0-4.47-.29-6.81-.88-3.09-.78-5.71-1.95-7.46-2.86.04-.05.08-.12.13-.2zm45.17-10.52c.1-.14.21-.29.31-.42.34-.45.69-.91 1.04-1.39.46-.63.93-1.3 1.4-1.99l.2-.29c.3-.43.59-.86.9-1.32.48-.73.99-1.52 1.49-2.31l.37-.59c.25-.39.5-.78.75-1.19.77-1.25 1.58-2.61 2.41-4.02l.43-.72c.5-.85 1-1.74 1.5-2.64l.41-.74c.13-.23.25-.45.38-.67.15-.27.31-.53.46-.82a183.556 183.556 0 0 0 2.69-5.13l.19-.37c.85-1.67 1.74-3.49 2.73-5.54l.24-.5c1.01-2.11 2.04-4.34 3.06-6.61l.4-.88c.47-.44.97-.93 1.48-1.49 1.34-1.48 2.84-3.29 4.45-5.36.45-.59.93-1.22 1.42-1.89l.36-.51c.39-.53.77-1.06 1.19-1.64l.56-.79 1.13-1.62 4.7-7.06c.43-.67.87-1.33 1.32-2.04l.92-1.44c.47-.73.94-1.47 1.43-2.24l1.77-2.8c.17.14.36.28.55.44.97.81 1.96 1.66 2.97 2.55l.81.74c.77.7 1.54 1.39 2.32 2.12.11.1.21.2.31.3a164.81 164.81 0 0 1 4.2 4.06l.69.72c1.48 1.5 2.68 2.74 3.75 3.89 1.65 1.78 3.27 3.58 4.81 5.35 1.62 1.88 3.21 3.82 4.71 5.77l.37.48c-1.14 1.83-2.25 3.61-3.35 5.33l-.62.96c-.94 1.48-1.87 2.93-2.77 4.31-.15.23-.29.44-.44.65l-.37.55c-.88 1.31-1.76 2.62-2.62 3.85-.5.72-.99 1.38-1.48 2.05l-.96 1.32c-.3.41-.59.83-.88 1.21-.34.45-.67.87-1 1.29l-1.1 1.41c-.42.54-.83 1.07-1.23 1.56-.88 1.08-1.75 2.08-2.59 3.05-.08.09-.17.2-.26.3l-.21.25c-1.78 2-3.41 3.7-4.77 5.09l-.5.52c-.23.24-.47.48-.69.7-8.26 8.12-15.29 10.44-19.85 11.48-2.62.51-5.31.59-8.02.21-2.63-.39-4.99-1.14-6.95-1.81-2.94-1.07-5.38-2.49-7-3.57.03-.04.05-.08.08-.11zm46.35-5.46c.52-.53 1.04-1.08 1.58-1.66l.79-.85.38-.42c.57-.61 1.13-1.23 1.71-1.9.46-.53.94-1.09 1.41-1.65l.61-.72c.33-.39.66-.78 1.01-1.2.81-1 1.64-2.07 2.48-3.16.11-.14.22-.28.32-.41.13-.17.26-.33.46-.6l-.34-.25.44.11c.34-.45.68-.93 1.03-1.42l1.1-1.51c.39-.54.79-1.08 1.19-1.65.94-1.34 1.94-2.81 3.15-4.64l.43-.63c.8-1.21 1.62-2.5 2.44-3.78l.22-.34c1.5-2.36 3.03-4.8 4.62-7.35l.65-1.04c.09-.06.19-.14.29-.21l.1-.08c.44-.32.9-.67 1.39-1.08.21-.17.42-.36.64-.55.46-.39.93-.82 1.46-1.32.21-.19.41-.37.61-.58.72-.69 1.45-1.42 2.24-2.24 2.19-2.28 4.76-5.17 7.65-8.6l9.59-11.53c.21.22.44.46.69.71l1.76 1.89c.38.42.79.87 1.22 1.35l.42.46c.58.65 1.2 1.35 1.85 2.12l.63.75c.16.19.31.39.47.58.97 1.16 1.95 2.32 2.88 3.48.19.24.38.48.56.72.17.23.35.46.52.68l.18.23c.86 1.1 1.71 2.2 2.55 3.32.54.76 1.07 1.55 1.6 2.34l.76 1.12c2.1 3.1 3.96 5.99 5.68 8.84l.3.48c.04.07.08.13.13.2-4.6 5.76-8.71 10.64-12.57 14.91l-.29.32c-1.18 1.3-2.35 2.56-3.47 3.74l-.64.65c-.99 1.02-1.97 2.02-2.91 2.95l-.61.58-.58.54c-.73.7-1.47 1.4-2.18 2.04-.29.27-.58.51-.86.75l-.92.8c-.47.41-.95.83-1.41 1.21-.37.31-.74.58-1.1.86l-.92.71c-.4.31-.8.63-1.22.93-1.15.84-2.25 1.58-3.08 2.12l-.01.01c-1 .69-1.99 1.33-2.93 1.9-1.87 1.12-3.71 2.05-5.47 2.77-3.23 1.33-6.47 2.07-9.63 2.19-5.03.4-9.95-.67-14.66-3.23-1.91-1.02-3.55-2.2-5.05-3.31-.53-.39-1.04-.8-1.54-1.21.04-.08.12-.16.2-.24zm46.48.5.34-.28c.52-.41 1.04-.83 1.57-1.27.58-.48 1.16-.99 1.74-1.5.51-.45 1.03-.9 1.55-1.38.64-.59 1.3-1.21 1.96-1.84l.42-.4c.36-.35.72-.69 1.09-1.05.72-.72 1.46-1.47 2.21-2.24l.39-.4c.35-.36.7-.72 1.05-1.09.81-.86 1.64-1.76 2.48-2.68l.54-.58c.28-.3.56-.61.85-.93.89-1 1.82-2.06 2.81-3.2l.58-.67c.23-.26.46-.52.69-.79 1.08-1.27 2.2-2.61 3.33-3.97l.45-.53c.18-.21.36-.42.54-.65 1.49-1.81 3.01-3.7 4.59-5.68l.61-.76c.09-.05.19-.11.29-.16l.16-.09c.47-.27.97-.58 1.49-.92.22-.15.45-.3.69-.47.51-.35 1.04-.74 1.59-1.15.23-.17.45-.33.69-.52.8-.61 1.62-1.27 2.51-2.01 1.19-.98 2.49-2.11 3.87-3.35 1.51-1.3 3.09-2.71 4.71-4.17.79-.72 1.62-1.49 2.5-2.3.37-.34.77-.72 1.16-1.07l.12-.11c.49-.46.97-.91 1.49-1.4l1-.94 2.13-2.02 2.57-2.46c.19.25.41.52.64.82l.16.21c.29.39.62.82.99 1.32l.27.37c.43.58.88 1.2 1.38 1.91.52.74 1.09 1.55 1.67 2.41l.13.21c4.92 7.63 9.37 15.81 13.28 24.39-4.6 4.61-9.05 8.8-13.24 12.46-.16.14-.31.27-.47.4l-.42.36c-1.1.95-2.2 1.89-3.28 2.78-.37.31-.74.6-1.11.89l-1.28 1.03c-.56.45-1.12.9-1.66 1.32-.56.43-1.11.83-1.66 1.24l-1.03.77c-.43.32-.85.64-1.27.95-.45.32-.89.63-1.33.93l-1.27.88c-.43.3-.87.6-1.29.88-.29.19-.57.37-.86.54l-.98.62c-.7.45-1.39.89-2.08 1.3a52.22 52.22 0 0 1-12.2 5.21c-3.38 1-6.65 1.41-9.77 1.23-3-.15-5.69-1-7.92-1.8-2.13-.76-4.24-1.85-6.25-3.23-2.63-1.8-4.67-3.79-5.98-5.24-.01-.06.03-.09.07-.13zm46.47 5.65.51-.34c.53-.34 1.07-.69 1.61-1.05.73-.49 1.48-1.01 2.22-1.53.6-.42 1.21-.85 1.82-1.29.73-.53 1.46-1.09 2.2-1.64l.09-.07c.6-.45 1.19-.9 1.79-1.37.78-.61 1.56-1.24 2.35-1.88l.51-.41c.43-.35.87-.7 1.31-1.07.88-.74 1.77-1.51 2.67-2.27l.5-.43c.36-.31.73-.62 1.09-.94 1.03-.91 2.09-1.87 3.14-2.83l.48-.44c.27-.24.53-.48.8-.73 1.23-1.14 2.49-2.34 3.75-3.55l.34-.32c.16-.15.31-.3.47-.45 1.55-1.51 3.15-3.09 4.75-4.7l.71-.71c.92-.37 1.96-.86 3.2-1.51.26-.13.52-.28.79-.42 1.45-.79 2.7-1.52 3.93-2.29 1.24-.76 2.67-1.7 4.38-2.87.37-.25.79-.55 1.2-.84l1.43-1.01c.84-.58 1.67-1.17 2.6-1.84.64-.46 1.35-.98 2.05-1.5l1.56-1.14c.81-.59 1.62-1.18 2.49-1.83.91-.68 1.9-1.42 2.88-2.16l2.99-2.24c.15.25.31.53.47.83l2.43 4.48c.41.78.83 1.61 1.28 2.5.96 1.94 1.76 3.61 2.52 5.26 3.16 6.87 5.71 13.61 7.8 20.61l.03.09c-3.28 2.53-6.63 5.01-9.95 7.37-.24.18-.48.34-.72.51l-.45.31c-1.32.95-2.63 1.89-3.9 2.77-.33.23-.65.44-.97.65l-1.26.84c-.86.58-1.73 1.16-2.55 1.69-.42.26-.82.51-1.22.76l-1.36.83c-.55.35-1.11.7-1.65 1.02-.35.21-.69.39-1.03.59l-1.22.69c-.64.37-1.28.73-1.91 1.07-.22.12-.44.23-.66.34l-.4.2c-.98.51-1.95 1.02-2.92 1.48-1.07.51-2.18 1.01-3.37 1.52l-1.69.72c-4.26 1.81-8.21 2.98-11.76 3.48-3.16.44-6.21.42-9.88-.07-4.82-.75-9.2-2.97-13.43-6.78-2.4-2.04-4.18-4.21-5.32-5.77.16-.12.32-.22.48-.32zm44.94 11.42.74-.35c.47-.22.95-.44 1.42-.67.85-.41 1.71-.85 2.57-1.3l.25-.13c.39-.2.77-.4 1.16-.61.9-.49 1.83-1.02 2.75-1.55l.44-.25c.31-.18.63-.35.94-.54 1.11-.66 2.25-1.37 3.4-2.1l.31-.19c.13-.07.26-.15.47-.29l-.23-.35.38.26c.94-.61 1.93-1.27 2.91-1.94l1.08-.72c.24-.16.48-.32.73-.49.8-.55 1.61-1.13 2.43-1.71l1.56-1.11c.36-.25.71-.51 1.08-.76 1.55-1.1 3.13-2.26 4.72-3.43 2.5-1.84 4.55-3.39 6.46-4.88l.68-.53.53-.01-.08-.16.1-.03c.53-.15 1.09-.33 1.69-.53.25-.09.51-.19.77-.28.57-.22 1.18-.46 1.81-.72.27-.12.53-.22.81-.34.92-.4 1.87-.83 2.89-1.32 2.5-1.19 5.62-2.87 9.22-4.82l.96-.51 2.98-1.62 1.37-.76c.63-.35 1.26-.7 1.93-1.07.57-.32 1.2-.67 1.8-1.02l1.92-1.09c.63-.36 1.32-.75 1.99-1.14l1.1-.63c.13.28.27.6.42.95l.11.26.63 1.5.2.48c.25.6.51 1.26.79 1.97l.1.26c.33.86.68 1.78 1.05 2.77 1.59 4.37 4.6 13.67 7.08 26.99-.7.42-1.37.81-2.04 1.21l-1.77 1.05c-.62.37-1.25.74-1.85 1.09-.24.14-.48.28-.71.4l-.5.28c-1.48.84-2.94 1.67-4.35 2.43-.25.14-.5.27-.74.39l-.51.27c-1.33.72-2.67 1.43-3.95 2.08-.34.17-.67.33-1 .49l-.81.39-.6.3c-.85.42-1.69.84-2.51 1.22-.9.42-1.73.8-2.56 1.18l-1.25.57c-.42.19-.84.39-1.23.56-.8.35-1.54.65-2.27.96l-1.32.55c-.34.14-.68.29-.99.42-.51.2-.98.37-1.45.54l-1.2.45c-.48.19-.96.37-1.4.52-.52.18-1 .32-1.48.47l-.95.3c-.42.14-.83.27-1.23.38l-.14.04c-9.53 2.58-16.99 2.9-22.81.98-1.36-.44-2.64-.98-3.93-1.67-1.19-.56-2.33-1.19-3.37-1.9-1.88-1.27-3.65-2.85-5.27-4.69-1.69-1.91-3.21-4.12-4.52-6.58.07-.07.18-.12.29-.17zm84.28 38.65c2.65-.51 5.1-1.07 7.47-1.69l.74-.21c2.76-.75 5.3-1.52 7.86-2.4l-.15-.4.31.34c.8-.27 1.64-.58 2.48-.89l.87-.32c.31-.12.61-.22.92-.33.35-.12.71-.25 1.08-.39.78-.29 1.59-.61 2.39-.93l1.93-.76c.48-.19.96-.37 1.46-.58l.28-.12c1.77-.71 3.72-1.5 5.85-2.39 2.31-.97 4.5-1.92 6.7-2.9l.86-.38c.24 0 .5-.02.76-.03l.5-.02c.14 0 .28-.01.44-.02.38-.03.81-.08 1.24-.13l.52-.06c.13-.01.26-.02.39-.04.57-.08 1.2-.18 1.82-.29l.63-.09c.86-.15 1.77-.33 2.73-.53 2.8-.57 6.35-1.48 11.16-2.75 1.05-.27 2.16-.56 3.32-.87l1.07-.29 2.59-.71c.37-.1.75-.21 1.14-.32l.54-.15c.79-.22 1.57-.44 2.41-.68.66-.19 1.38-.39 2.07-.59.43-.12.84-.24 1.3-.37.06.31.12.66.18 1.04l.04.22c.08.5.17 1.07.26 1.67l.07.48c.09.64.19 1.34.29 2.09l.04.32c.12.89.23 1.84.35 2.85.2 1.74.35 3.68.49 5.92l.04.71c.12 2.15.2 4.35.23 6.53l.01.39c.03 2.11.02 4.36-.03 6.88-.01.35-.01.72-.03 1.11-.05 2.2-.14 4.36-.26 6.44-2.18.68-4.28 1.31-6.31 1.9l-.47.13c-1.94.56-3.83 1.09-5.64 1.57-.27.07-.53.14-.79.2l-.79.2c-1.39.35-2.78.71-4.11 1.02-.45.1-.87.2-1.3.29l-1.6.35c-.84.19-1.68.37-2.48.54-1.04.21-1.98.38-2.94.56l-1.38.26c-.37.07-.74.14-1.09.21-.92.16-1.77.29-2.61.42l-1.39.21c-.31.05-.61.1-.9.14-.59.08-1.14.14-1.69.2l-1.29.15c-.46.05-.91.11-1.33.15-.5.05-.97.07-1.43.1l-1.11.07c-.46.03-.92.07-1.34.08h-.14c-9.9.2-17.25-1.26-22.41-4.53h-.01c-1.23-.74-2.37-1.66-3.43-2.53-.99-.79-1.94-1.68-2.81-2.65-1.52-1.68-2.86-3.64-4-5.84-1.15-2.21-2.07-4.66-2.82-7.48.11-.05.18-.06.25-.08zm38.04 26.75.6-.05c.5-.04 1.01-.08 1.53-.13.8-.08 1.65-.18 2.51-.28a78.69 78.69 0 0 0 4.1-.59l1.14-.18c.48-.08.96-.15 1.46-.24 1.26-.22 2.61-.48 3.99-.76.21-.04.41-.08.61-.12l.64-.13c.07-.01.12-.02.18-.03.64-.13 1.31-.28 1.98-.43l1.72-.37c.6-.13 1.2-.26 1.83-.4.95-.22 1.93-.47 2.93-.73l1.81-.46c.42-.1.84-.21 1.27-.32 1.77-.47 3.62-1 5.5-1.54.16-.05.32-.09.48-.14.16-.04.32-.09.48-.14 2.29-.67 4.64-1.38 6.97-2.12l.93-.3h.06l.63.04c.64.04 1.35.07 2.13.07l.18.01h.53c.35 0 .73-.01 1.12-.02l1.46-.04c.91-.04 1.88-.09 2.91-.16.71-.05 1.46-.12 2.26-.19l.89-.1c.54-.05 1.07-.11 1.65-.17l1.84-.22c.34-.04.67-.08 1.03-.13l4.74-.66c.68-.09 1.34-.19 2.06-.3l1.69-.26c.75-.12 1.49-.23 2.28-.36.6-.09 1.25-.2 1.87-.3.83-.13 1.66-.27 2.54-.41l3.42-.57.03 1 .01.42c.01.45.03.94.03 1.47l.01.69c.01.56.01 1.17.01 1.8v.64c0 .87-.01 1.81-.03 2.79-.08 3.28-.23 7.7-.7 12.81-.03.33-.08.7-.12 1.06-.04.3-.07.61-.1.9-.18 1.72-.36 3.5-.62 5.36-.14.97-.32 2-.5 3.04l-.24 1.38c-.07.4-.13.8-.2 1.2-.11.69-.22 1.38-.36 2.1-1.71.3-3.45.59-5.21.88-.54.09-1.12.17-1.69.26l-.68.1c-1.51.23-3.02.46-4.61.69-.46.07-.91.13-1.36.19-.35.05-.7.09-1.05.14l-.85.12c-1 .14-1.99.28-2.94.39-.47.06-.93.11-1.38.15l-1.52.16c-.93.1-1.87.21-2.75.28-.86.08-1.69.11-2.51.14-.5.02-.99.04-1.49.07l-1.39.09c-1.37.09-2.79.19-4.14.2-.7.01-1.39-.02-2.07-.06-.45-.02-.91-.04-1.37-.05l-1.11-.02c-1.49-.02-3.04-.05-4.54-.16l-.41-.03c-4.89-.35-9.2-1.19-12.79-2.48-1.66-.59-3.27-1.33-4.8-2.19l-.02-.01c-1.41-.71-2.73-1.53-3.93-2.43-2.14-1.61-4-3.58-5.51-5.84-1.42-2.13-2.41-4.33-3.28-6.39a33.566 33.566 0 0 1-2-7.61c.1-.01.16-.01.23-.02zm37.13 30.99c.42.01.84.04 1.26.06.93.05 1.87.08 2.83.05.22 0 .44-.01.67-.02.57-.01 1.15-.02 1.73-.04 2.9-.08 5.35-.22 7.71-.43l.27-.02c.88-.08 1.81-.18 2.74-.29l1.7-.18c.4-.04.79-.08 1.21-.13 1.13-.14 2.31-.3 3.48-.46l1.49-.21c.39-.05.78-.1 1.18-.16 2.44-.34 4.77-.68 7.04-1.05h.18l.03-.02c2.19-.35 4.32-.72 6.51-1.11l.94-.17c.1.02.21.05.31.07l.18.03c.53.12 1.11.22 1.74.3.26.04.53.08.81.11.61.07 1.26.14 1.95.2l.28.02c.19.02.38.04.59.05 1 .07 2.04.13 3.18.16 1.05.04 2.24.05 3.48.05l.47.01h.67c.42 0 .88 0 1.32-.01 1.54-.01 3.16-.03 4.99-.06l.55-.01c1.08-.02 2.23-.04 3.44-.06l.96-.03c.92-.02 1.85-.05 2.85-.07l7.74-.28c-.02.3-.04.63-.07.97l-.03.46c-.04.45-.08.94-.12 1.47l-.05.57c-.06.62-.13 1.28-.2 1.98l-.05.43c-.09.88-.21 1.83-.33 2.83l-.1.72c-.65 4.59-2.3 14.11-6.09 26.55l-.47.02c-2.1.13-4.15.24-6.1.33l-.93.03c-1.86.07-3.7.14-5.44.17h-.9c-1.17.02-2.33.02-3.47.02-.74 0-1.48 0-2.17-.02-.21 0-.42-.01-.64-.01-1.44-.02-2.86-.05-4.21-.11l-.3-.02c-.16-.01-.3-.02-.45-.02l-.26-.01c-1.52-.07-3-.14-4.37-.24-.37-.02-.73-.05-1.08-.08l-.45-.04c-1.22-.09-2.43-.19-3.53-.3l-1.31-.15-.94-.12c-.6-.07-1.21-.14-1.77-.23a98.88 98.88 0 0 1-3.01-.51c-.17-.03-.34-.07-.52-.09-.21-.04-.43-.07-.64-.12-9.66-2.11-16.44-5.29-20.74-9.73-.89-.89-1.75-1.93-2.72-3.27l-.01-.01c-.78-1.02-1.49-2.11-2.1-3.25-1.08-2-1.92-4.23-2.5-6.63-.6-2.4-.91-5-.96-7.93.84.03 1.71.02 2.55.04zm28.1 34.95c.02 0 .05.01.07.01l.38.06c.59.1 1.19.19 1.83.28 1 .15 2.02.28 3.07.39l1.06.12c.12.02.25.03.38.05.76.07 1.56.13 2.36.19l2.19.16c1.6.1 3.25.19 4.95.27l.78.04c2.02.08 4.22.12 6.73.13l.59.01c1.44 0 2.93-.02 4.46-.05l.26-.01c.19 0 .38-.01.58-.02 1.66-.04 3.38-.1 5.23-.18l1.61-.07c2.06-.1 4.17-.21 6.38-.36l.97-.07.45.14c.51.17 1.06.33 1.66.49.2.06.41.11.61.16l.21.05c.58.15 1.2.29 1.87.44l.86.19c.97.2 2 .39 3.13.59.68.12 1.42.23 2.2.34l.91.12c.52.07 1.04.14 1.61.22l1.02.12c.59.07 1.18.14 1.82.21l1.37.15c.6.07 1.19.13 1.83.19l10.33.91c.56.05 1.13.09 1.73.14l3.59.27c-.06.31-.14.66-.22 1.04l-.05.23c-.11.52-.24 1.11-.38 1.75l-.07.3c-.16.72-.34 1.49-.57 2.42-.22.9-.46 1.86-.74 2.89-.85 3.15-2.04 7.38-3.7 12.21-.14.42-.31.87-.49 1.32-.12.32-.24.65-.36.96l-.17.49c-.48 1.34-.98 2.72-1.55 4.15-.34.85-.73 1.74-1.13 2.64l-1 2.3c-.31.74-.63 1.48-.98 2.25-.08 0-.16-.01-.23-.01-2.7-.18-5.66-.42-9.05-.73l-1.15-.11c-.61-.05-1.22-.11-1.86-.17-.54-.05-1.07-.11-1.59-.16l-1.73-.19c-.99-.1-1.98-.2-2.92-.31-.45-.05-.87-.11-1.29-.17l-1.75-.23c-.9-.12-1.8-.23-2.65-.37l-.27-.04c-3.18-.49-6.26-1.07-9.15-1.75l-.09.41-.03-.44c-2.87-.67-5.73-1.47-8.5-2.37l-.49-.16c-4.64-1.5-8.6-3.32-11.76-5.41-1.5-1-2.89-2.09-4.13-3.26l-.01-.01c-1.28-1.12-2.38-2.24-3.26-3.33-3.87-4.63-5.04-9.89-5.62-13.95-.43-3.12-.33-5.94-.14-7.87zm26.42 38.3c.96.28 1.96.53 2.93.78.45.11.89.22 1.33.34.38.1.76.21 1.14.31.59.16 1.18.33 1.79.47 2.25.51 4.72.98 7.8 1.48.23.04.44.08.65.12.23.05.46.1.74.14l.24.04c.76.12 1.58.22 2.39.33l1.85.25c.46.07.92.13 1.41.19.95.11 1.93.21 2.92.31l1.75.19c.49.05.98.11 1.49.16l.63.06.38.04c4.61.46 8.83.8 12.87 1.04l.97.06v.01c.08.04.16.08.25.12l.16.07c.5.24 1.05.49 1.66.73l.75.29c.58.22 1.2.44 1.86.66l.81.28c.95.3 1.96.61 3.06.91 2.94.85 6.75 1.71 11.16 2.72 1.04.24 2.14.49 3.31.75l11.35 2.39c-.09.3-.2.62-.31.97l-.12.35c-.14.44-.31.93-.49 1.46l-.2.57c-.19.55-.4 1.15-.63 1.78l-.18.51c-.3.81-.63 1.69-.98 2.61-.63 1.63-1.41 3.48-2.31 5.49l-.29.65c-.87 1.92-1.81 3.89-2.8 5.87l-.19.38c-.95 1.89-1.99 3.87-3.18 6.04l-.58 1.04a228.72 228.72 0 0 1-3.19 5.56.507.507 0 0 0-.13-.02c-2.19-.39-4.31-.8-6.33-1.2l-.98-.21c-1.8-.37-3.56-.74-5.24-1.12l-.65-.16c-.24-.06-.49-.12-.74-.18-1.48-.35-2.95-.69-4.34-1.05-.31-.08-.6-.16-.89-.24l-1.1-.3c-1.13-.3-2.26-.6-3.33-.91-.56-.16-1.07-.32-1.58-.47l-2.03-.61c-.56-.17-1.11-.33-1.63-.5-1.05-.33-1.99-.65-2.94-.97l-.94-.32c-.28-.09-.56-.19-.81-.28-.55-.19-1.04-.38-1.53-.58l-1.23-.47c-.45-.17-.89-.33-1.3-.5-.47-.19-.9-.39-1.34-.58l-.96-.43c-.43-.19-.86-.37-1.26-.56l-.14-.07c-8.86-4.36-14.67-9.05-17.75-14.33-.66-1.1-1.27-2.35-1.86-3.84-.52-1.18-.95-2.41-1.27-3.65-.57-2.19-.86-4.55-.86-7.02 0-2.51.31-5.11.96-7.95zm19.67 48.9c.32-3.14 1.1-5.84 1.74-7.67.06.02.11.05.16.07.15.06.31.12.46.19.5.21 1.01.43 1.54.64.74.3 1.53.6 2.33.89l.4.15c.45.17.89.33 1.37.5.84.29 1.74.59 2.65.89l.68.23c.42.14.85.28 1.3.42 1.54.49 3.18.98 4.91 1.48.02 0 .04.01.06.02l.35.1c1.12.33 2.31.65 3.5.96l1.06.29c.27.07.55.15.84.22 1.55.39 3.18.78 4.83 1.16l.56.13c.22.05.43.1.66.16 1.67.38 3.44.74 5.22 1.1l.51.11c.29.06.57.12.87.18 2.47.49 4.81.93 7.15 1.34l.96.17.14.08c.49.31 1.06.65 1.68.99l.69.37c.55.29 1.14.59 1.78.9l.8.39c.92.44 1.89.88 2.97 1.36.67.29 1.39.59 2.16.9.2.08.43.17.65.26l.15.06c.53.21 1.07.42 1.65.65l1.17.44c.52.2 1.03.39 1.58.59l4.98 1.78c.5.18 1.01.35 1.55.54l9.66 3.22c.49.16.96.32 1.45.48-.13.28-.29.6-.45.94l-.14.28c-.21.44-.45.92-.71 1.44l-.26.51c-.28.55-.58 1.14-.91 1.77l-.21.41c-.42.79-.87 1.64-1.37 2.54-.1.19-.21.37-.32.56l-.27.47c-.68 1.22-1.58 2.82-2.54 4.42-.08.14-.17.28-.26.43l-.25.4c-.76 1.25-1.76 2.9-2.83 4.56-1.03 1.6-2.18 3.31-3.53 5.26l-.28.4c-.18.26-.36.53-.54.78-.04.06-.08.12-.13.18-1.48 2.02-2.98 3.97-4.45 5.82l-.08-.02c-6.3-2.04-11.46-3.79-15.82-5.4-.84-.31-1.65-.62-2.43-.91l-.74-.29c-.55-.21-1.1-.42-1.62-.63l-.88-.36c-.44-.18-.88-.36-1.31-.53l-.67-.29c-1.39-.59-2.74-1.18-4.03-1.77-.35-.16-.69-.33-1.03-.49l-.39-.19c-.86-.41-1.7-.82-2.5-1.22-.81-.42-1.62-.85-2.43-1.29l-.42-.23c-.46-.25-.93-.5-1.38-.75-.51-.29-1.02-.58-1.53-.88l-2.33-1.37c-4.25-2.61-7.75-5.39-10.39-8.26-1.08-1.17-2.11-2.49-3.25-4.15v-.01c-.93-1.3-1.72-2.63-2.36-3.97a23.89 23.89 0 0 1-2.17-7.72c-.28-2.53-.14-4.95.04-7.18zm15.39 43.26c.63-2.46 1.56-4.92 2.84-7.49.04.02.07.04.11.06 1.65.97 3.46 2.01 5.48 3.06.22.12.46.23.71.35.19.09.38.18.55.27.28.14.56.28.84.41l.32.16c2.53 1.23 4.74 2.23 6.99 3.17l2.42.98c.57.23 1.17.46 1.77.7l.73.28c.74.28 1.51.57 2.29.86l.36.14c4.63 1.71 10.19 3.59 17 5.77l.93.3c.07.06.16.13.25.2l.16.12c.42.35.87.7 1.37 1.07.21.15.44.31.66.47.51.35 1.05.72 1.64 1.09l.72.46c.85.53 1.75 1.07 2.74 1.63 2.73 1.55 6.07 3.29 10.22 5.32l3.32 1.65c.53.26 1.07.53 1.6.79.61.3 1.21.6 1.83.9l3.71 1.8c.45.22.91.44 1.38.66l1.6.76c-.16.26-.33.54-.52.84l-1.37 2.13c-.35.53-.73 1.11-1.14 1.71l-.19.28c-.52.76-1.08 1.58-1.69 2.45-4.07 5.97-10.66 13.68-18.11 21.18-1.97-.89-3.87-1.76-5.71-2.64-.28-.13-.55-.26-.82-.39l-.34-.17c-3.38-1.62-6.55-3.22-9.43-4.77l-.66-.35c-1.38-.74-2.7-1.49-4.01-2.23l-1.34-.77c-1.16-.65-2.27-1.3-3.35-1.94l-.29-.17c-.12-.07-.25-.14-.39-.23-.09-.05-.18-.11-.27-.16l-.23-.14c-1.03-.63-2.03-1.26-2.98-1.89l-.94-.62c-.51-.34-.98-.68-1.46-1.02l-.92-.64c-.32-.22-.64-.44-.95-.68l-.12-.09c-1.19-.88-2.19-1.67-3.08-2.39-1.93-1.59-3.7-3.24-5.26-4.91-1.54-1.52-2.91-3.07-4.06-4.61-2.1-2.8-3.61-5.71-4.49-8.64-.88-3.22-1.3-5.79-1.3-8.06-.01-2.28.28-4.64.88-7.02zm69.77 97.1c1.1-1.02 2.25-2.08 3.3-3.12 1.08-1.08 2.11-2.11 3.04-3.1l2.1-2.21c1.11-1.2 2.1-2.32 2.97-3.29l.15-.16c.13-.14.24-.28.3-.36l.53-.63c.13-.16.27-.32.47-.56.33-.44.65-.83 1-1.25.38-.49.68-.89.93-1.22l.15-.21c.21-.27.38-.5.48-.65 1.38-1.05 2.86-2.24 4.66-3.72l.32-.26c.14-.11.28-.22.43-.35 1.6-1.35 2.97-2.55 4.29-3.76 2-1.83 3.74-3.5 5.32-5.1l.13-.13c1.58-1.62 2.93-3.08 4.14-4.46l.13-.15c2.32-2.6 4.38-5.31 6.68-8.78l.22-.35c.98-1.51 1.78-2.8 2.44-3.94.38-.63.72-1.25 1.06-1.88 2.25 2.36 4.25 5.04 5.93 7.96 2.14 3.81 4.71 10.22 4.82 19.09.02 1.91-.11 3.95-.37 6.05-.29 1.92-.8 3.99-1.59 6.52-1.05 3.28-2.54 6.68-4.43 10.13h-49.69l.09-.11zM721.62 1413.6c-6.1-4.02-10.84-9.37-14.22-16.06-3.38-6.68-4.6-14.01-3.64-21.96l6.3-.14c-.52 7.77.67 14.48 3.55 20.12 2.88 5.63 6.65 9.99 11.3 13.06 9.64 6.36 18.32 8.39 26.04 6.09 7.72-2.3 14.98-8.61 21.78-18.91l47.16-71.48-48.37-31.92 2.96-4.48 53.69 35.42-50.45 76.46c-4.31 6.54-9.24 11.84-14.78 15.9-5.54 4.06-11.74 6.09-18.58 6.11-6.85.01-14.43-2.73-22.74-8.21zm134.47 63.61c-2.42-.73-4.39-2.36-5.91-4.9-1.53-2.54-1.76-5.58-.69-9.15 1.11-3.69 2.99-6.14 5.64-7.35 2.65-1.22 5.18-1.46 7.6-.74 2.54.77 4.55 2.38 6.04 4.83 1.48 2.46 1.67 5.53.56 9.21-1.07 3.56-2.91 5.99-5.51 7.28-2.61 1.32-5.19 1.59-7.73.82zM966 1495.26l2.13-131.42 76.46 1.24-.09 5.57-70.09-1.14-.86 52.97 58.94.96-.09 5.57-58.94-.96-1 61.73 72.08 1.17-.09 5.58-78.45-1.27zm175.56-17.54c-2.42.72-4.96.43-7.63-.86s-4.53-3.72-5.58-7.28c-1.09-3.69-.86-6.77.69-9.24 1.55-2.47 3.54-4.06 5.96-4.78 2.54-.75 5.11-.51 7.7.73 2.58 1.24 4.42 3.71 5.51 7.4 1.06 3.57.84 6.61-.62 9.12-1.48 2.52-3.48 4.15-6.03 4.91zm132.72-61.87c-8.44 5.53-16.89 8.8-25.35 9.82-8.46 1.02-16.42.56-23.88-1.38l1.26-6.07c7.27 1.9 14.79 2.29 22.55 1.18 7.76-1.11 15.14-3.97 22.13-8.55 9.33-6.11 15.33-13.17 18.01-21.2 2.68-8.02 1.73-15.54-2.86-22.53-3.2-4.88-6.76-8.15-10.69-9.78-3.93-1.63-8.17-2.3-12.74-2.01-4.57.29-9.4.92-14.49 1.87l-22.01 3.47c-4.28.74-8.97 1.27-14.07 1.59-5.1.33-10.09-.37-14.95-2.11s-9.08-5.32-12.64-10.76c-3.42-5.22-5-10.73-4.75-16.53.25-5.8 2.12-11.42 5.6-16.89 3.49-5.46 8.34-10.22 14.56-14.3 7-4.58 14.04-7.33 21.14-8.25 7.1-.92 13.44-.74 19.02.51l-.93 5.85c-5.66-1.37-11.57-1.54-17.73-.53-6.16 1.02-12.24 3.49-18.23 7.42-8.11 5.31-13.43 11.54-15.97 18.68-2.54 7.14-1.74 13.87 2.4 20.2 2.98 4.56 6.57 7.48 10.75 8.79a32.61 32.61 0 0 0 12.89 1.32c4.4-.42 8.39-.93 11.97-1.53l22.01-3.46c5.5-1.06 10.92-1.68 16.28-1.86 5.36-.18 10.39.77 15.08 2.86 4.7 2.08 8.9 5.95 12.61 11.62 3.64 5.55 5.39 11.5 5.27 17.85-.13 6.35-2.06 12.54-5.81 18.57-3.73 6.04-9.21 11.42-16.43 16.14z"/></svg>